%TF.GenerationSoftware,KiCad,Pcbnew,(6.0.5)*%
%TF.CreationDate,2022-08-05T12:45:28-07:00*%
%TF.ProjectId,RFIDice_V0_revised,52464944-6963-4655-9f56-305f72657669,rev?*%
%TF.SameCoordinates,Original*%
%TF.FileFunction,Soldermask,Top*%
%TF.FilePolarity,Negative*%
%FSLAX46Y46*%
G04 Gerber Fmt 4.6, Leading zero omitted, Abs format (unit mm)*
G04 Created by KiCad (PCBNEW (6.0.5)) date 2022-08-05 12:45:28*
%MOMM*%
%LPD*%
G01*
G04 APERTURE LIST*
G04 Aperture macros list*
%AMRoundRect*
0 Rectangle with rounded corners*
0 $1 Rounding radius*
0 $2 $3 $4 $5 $6 $7 $8 $9 X,Y pos of 4 corners*
0 Add a 4 corners polygon primitive as box body*
4,1,4,$2,$3,$4,$5,$6,$7,$8,$9,$2,$3,0*
0 Add four circle primitives for the rounded corners*
1,1,$1+$1,$2,$3*
1,1,$1+$1,$4,$5*
1,1,$1+$1,$6,$7*
1,1,$1+$1,$8,$9*
0 Add four rect primitives between the rounded corners*
20,1,$1+$1,$2,$3,$4,$5,0*
20,1,$1+$1,$4,$5,$6,$7,0*
20,1,$1+$1,$6,$7,$8,$9,0*
20,1,$1+$1,$8,$9,$2,$3,0*%
G04 Aperture macros list end*
%ADD10C,0.650000*%
%ADD11RoundRect,0.050800X-0.575000X0.287500X-0.575000X-0.287500X0.575000X-0.287500X0.575000X0.287500X0*%
%ADD12RoundRect,0.050800X-0.575000X0.137500X-0.575000X-0.137500X0.575000X-0.137500X0.575000X0.137500X0*%
%ADD13O,2.101600X1.101600*%
%ADD14R,0.900000X0.900000*%
%ADD15RoundRect,0.237500X0.237500X-0.250000X0.237500X0.250000X-0.237500X0.250000X-0.237500X-0.250000X0*%
%ADD16RoundRect,0.500000X-0.500000X-0.500000X0.500000X-0.500000X0.500000X0.500000X-0.500000X0.500000X0*%
%ADD17C,2.000000*%
%ADD18RoundRect,0.237500X0.300000X0.237500X-0.300000X0.237500X-0.300000X-0.237500X0.300000X-0.237500X0*%
%ADD19RoundRect,0.237500X0.250000X0.237500X-0.250000X0.237500X-0.250000X-0.237500X0.250000X-0.237500X0*%
%ADD20R,0.152400X0.152400*%
%ADD21RoundRect,0.237500X-0.237500X0.300000X-0.237500X-0.300000X0.237500X-0.300000X0.237500X0.300000X0*%
%ADD22RoundRect,0.237500X0.237500X-0.300000X0.237500X0.300000X-0.237500X0.300000X-0.237500X-0.300000X0*%
%ADD23C,1.524000*%
%ADD24RoundRect,0.150000X-0.150000X0.587500X-0.150000X-0.587500X0.150000X-0.587500X0.150000X0.587500X0*%
%ADD25RoundRect,0.150000X0.150000X-0.587500X0.150000X0.587500X-0.150000X0.587500X-0.150000X-0.587500X0*%
%ADD26RoundRect,0.237500X-0.250000X-0.237500X0.250000X-0.237500X0.250000X0.237500X-0.250000X0.237500X0*%
%ADD27RoundRect,0.237500X-0.237500X0.287500X-0.237500X-0.287500X0.237500X-0.287500X0.237500X0.287500X0*%
%ADD28RoundRect,0.500000X0.500000X-0.500000X0.500000X0.500000X-0.500000X0.500000X-0.500000X-0.500000X0*%
%ADD29RoundRect,0.150000X0.650000X0.150000X-0.650000X0.150000X-0.650000X-0.150000X0.650000X-0.150000X0*%
%ADD30RoundRect,0.237500X-0.300000X-0.237500X0.300000X-0.237500X0.300000X0.237500X-0.300000X0.237500X0*%
%ADD31C,1.422400*%
%ADD32C,2.184400*%
%ADD33RoundRect,0.500000X0.500000X0.500000X-0.500000X0.500000X-0.500000X-0.500000X0.500000X-0.500000X0*%
%ADD34RoundRect,0.500000X-0.500000X0.500000X-0.500000X-0.500000X0.500000X-0.500000X0.500000X0.500000X0*%
%ADD35R,1.560000X0.650000*%
%ADD36RoundRect,0.250001X-0.924999X0.499999X-0.924999X-0.499999X0.924999X-0.499999X0.924999X0.499999X0*%
%ADD37C,1.203200*%
%ADD38RoundRect,0.050000X0.050000X-0.387500X0.050000X0.387500X-0.050000X0.387500X-0.050000X-0.387500X0*%
%ADD39RoundRect,0.050000X0.387500X-0.050000X0.387500X0.050000X-0.387500X0.050000X-0.387500X-0.050000X0*%
%ADD40RoundRect,0.144000X1.456000X-1.456000X1.456000X1.456000X-1.456000X1.456000X-1.456000X-1.456000X0*%
%ADD41R,1.700000X1.700000*%
%ADD42O,1.700000X1.700000*%
%ADD43R,0.650000X1.560000*%
%ADD44R,2.100000X5.600000*%
G04 APERTURE END LIST*
D10*
%TO.C,X1*%
X82480000Y-80930000D03*
X82480000Y-86710000D03*
D11*
X83555000Y-80620000D03*
X83555000Y-81420000D03*
D12*
X83555000Y-82570000D03*
X83555000Y-83570000D03*
X83555000Y-84070000D03*
X83555000Y-85070000D03*
D11*
X83555000Y-87020000D03*
X83555000Y-86220000D03*
D12*
X83555000Y-85570000D03*
X83555000Y-84570000D03*
X83555000Y-83070000D03*
X83555000Y-82070000D03*
D13*
X82980000Y-79500000D03*
X82980000Y-88140000D03*
X78800000Y-79500000D03*
X78800000Y-88140000D03*
%TD*%
D14*
%TO.C,RN2*%
X128302000Y-73382000D03*
X129642000Y-73382000D03*
X130962000Y-73382000D03*
X132302000Y-73382000D03*
X132302000Y-70382000D03*
X130962000Y-70382000D03*
X129642000Y-70382000D03*
X128302000Y-70382000D03*
%TD*%
%TO.C,RN1*%
X138716000Y-71858000D03*
X140056000Y-71858000D03*
X141376000Y-71858000D03*
X142716000Y-71858000D03*
X142716000Y-68858000D03*
X141376000Y-68858000D03*
X140056000Y-68858000D03*
X138716000Y-68858000D03*
%TD*%
D15*
%TO.C,R7*%
X112522000Y-66698500D03*
X112522000Y-64873500D03*
%TD*%
D16*
%TO.C,SW8*%
X155067000Y-81788000D03*
X161417000Y-81788000D03*
%TD*%
D17*
%TO.C,TP13*%
X163957000Y-56388000D03*
%TD*%
%TO.C,TP12*%
X152400000Y-69596000D03*
%TD*%
%TO.C,TP16*%
X121666000Y-63754000D03*
%TD*%
%TO.C,TP2*%
X79629000Y-76200000D03*
%TD*%
%TO.C,TP7*%
X124206000Y-60198000D03*
%TD*%
D18*
%TO.C,C9*%
X98652500Y-74676000D03*
X96927500Y-74676000D03*
%TD*%
D17*
%TO.C,TP9*%
X144018000Y-64262000D03*
%TD*%
D19*
%TO.C,R15*%
X99718500Y-77855508D03*
X97893500Y-77855508D03*
%TD*%
D20*
%TO.C,U5*%
X102491800Y-70055994D03*
X102841800Y-70055994D03*
X102491800Y-70406006D03*
X102841800Y-70406006D03*
%TD*%
D21*
%TO.C,C12*%
X105918000Y-91593500D03*
X105918000Y-93318500D03*
%TD*%
D22*
%TO.C,C8*%
X105156000Y-77824500D03*
X105156000Y-76099500D03*
%TD*%
D23*
%TO.C,BT1*%
X97282000Y-58039000D03*
X82042000Y-58039000D03*
%TD*%
D18*
%TO.C,C21*%
X90270500Y-79502000D03*
X88545500Y-79502000D03*
%TD*%
D21*
%TO.C,C4*%
X105460800Y-69241500D03*
X105460800Y-70966500D03*
%TD*%
D24*
%TO.C,Q1*%
X104963000Y-61419500D03*
X103063000Y-61419500D03*
X104013000Y-63294500D03*
%TD*%
D19*
%TO.C,R14*%
X94384500Y-77978000D03*
X92559500Y-77978000D03*
%TD*%
D17*
%TO.C,TP10*%
X148082000Y-64262000D03*
%TD*%
%TO.C,TP15*%
X115443000Y-69850000D03*
%TD*%
D18*
%TO.C,C7*%
X96874500Y-80264000D03*
X95149500Y-80264000D03*
%TD*%
D23*
%TO.C,U2*%
X170434000Y-61214000D03*
X170434000Y-63754000D03*
X170434000Y-66294000D03*
X170434000Y-68834000D03*
X170434000Y-71374000D03*
X170434000Y-73914000D03*
X170434000Y-76454000D03*
X170434000Y-78994000D03*
X170434000Y-81534000D03*
%TD*%
D22*
%TO.C,C19*%
X117348000Y-83920500D03*
X117348000Y-82195500D03*
%TD*%
%TO.C,C14*%
X108204000Y-77824500D03*
X108204000Y-76099500D03*
%TD*%
D21*
%TO.C,C18*%
X117348000Y-87275500D03*
X117348000Y-89000500D03*
%TD*%
D17*
%TO.C,TP14*%
X166116000Y-85852000D03*
%TD*%
D25*
%TO.C,U3*%
X88458000Y-75867500D03*
X90358000Y-75867500D03*
X89408000Y-73992500D03*
%TD*%
D19*
%TO.C,R1*%
X82192500Y-69723000D03*
X80367500Y-69723000D03*
%TD*%
%TO.C,R4*%
X97203900Y-82499200D03*
X95378900Y-82499200D03*
%TD*%
D26*
%TO.C,R5*%
X96623500Y-100330000D03*
X98448500Y-100330000D03*
%TD*%
D27*
%TO.C,D1*%
X85344000Y-69483000D03*
X85344000Y-71233000D03*
%TD*%
D28*
%TO.C,SW4*%
X137922000Y-101219000D03*
X137922000Y-94869000D03*
%TD*%
D29*
%TO.C,U7*%
X98342000Y-95250000D03*
X98342000Y-93980000D03*
X98342000Y-92710000D03*
X98342000Y-91440000D03*
X91142000Y-91440000D03*
X91142000Y-92710000D03*
X91142000Y-93980000D03*
X91142000Y-95250000D03*
%TD*%
D16*
%TO.C,SW6*%
X155067000Y-98044000D03*
X161417000Y-98044000D03*
%TD*%
D30*
%TO.C,C15*%
X112929500Y-83947000D03*
X114654500Y-83947000D03*
%TD*%
D19*
%TO.C,R3*%
X97203900Y-84150200D03*
X95378900Y-84150200D03*
%TD*%
D18*
%TO.C,C6*%
X96874500Y-88138000D03*
X95149500Y-88138000D03*
%TD*%
D16*
%TO.C,SW9*%
X155067000Y-73914000D03*
X161417000Y-73914000D03*
%TD*%
D26*
%TO.C,R13*%
X92559500Y-75946000D03*
X94384500Y-75946000D03*
%TD*%
D17*
%TO.C,TP3*%
X88519000Y-87122000D03*
%TD*%
D19*
%TO.C,R8*%
X114704500Y-85725000D03*
X112879500Y-85725000D03*
%TD*%
D31*
%TO.C,SW1*%
X108712004Y-54356000D03*
X106712004Y-54356000D03*
X104812004Y-54356000D03*
D32*
X110812004Y-54356000D03*
X102512004Y-54356000D03*
%TD*%
D26*
%TO.C,R2*%
X80367500Y-72009000D03*
X82192500Y-72009000D03*
%TD*%
D33*
%TO.C,SW5*%
X148717000Y-90170000D03*
X142367000Y-90170000D03*
%TD*%
D34*
%TO.C,SW2*%
X137922000Y-79375000D03*
X137922000Y-85725000D03*
%TD*%
D17*
%TO.C,TP4*%
X98552000Y-53594000D03*
%TD*%
%TO.C,TP5*%
X129667000Y-66294000D03*
%TD*%
D26*
%TO.C,R6*%
X91797500Y-100330000D03*
X93622500Y-100330000D03*
%TD*%
D35*
%TO.C,U1*%
X85678000Y-66675000D03*
X85678000Y-65725000D03*
X85678000Y-64775000D03*
X82978000Y-64775000D03*
X82978000Y-66675000D03*
%TD*%
D17*
%TO.C,TP11*%
X152146000Y-64262000D03*
%TD*%
%TO.C,TP1*%
X112141000Y-73406000D03*
%TD*%
D15*
%TO.C,R11*%
X160528000Y-66952500D03*
X160528000Y-65127500D03*
%TD*%
D36*
%TO.C,C20*%
X94742000Y-65050000D03*
X94742000Y-68300000D03*
%TD*%
D18*
%TO.C,C11*%
X96874500Y-86106000D03*
X95149500Y-86106000D03*
%TD*%
D37*
%TO.C,J2*%
X120142000Y-53721000D03*
X120142000Y-54991000D03*
X118872000Y-53721000D03*
X118872000Y-54991000D03*
X117602000Y-53721000D03*
X117602000Y-54991000D03*
X116332000Y-53721000D03*
X116332000Y-54991000D03*
X115062000Y-53721000D03*
X115062000Y-54991000D03*
%TD*%
D21*
%TO.C,C3*%
X100126800Y-69241500D03*
X100126800Y-70966500D03*
%TD*%
D38*
%TO.C,U6*%
X102302000Y-88273500D03*
X102702000Y-88273500D03*
X103102000Y-88273500D03*
X103502000Y-88273500D03*
X103902000Y-88273500D03*
X104302000Y-88273500D03*
X104702000Y-88273500D03*
X105102000Y-88273500D03*
X105502000Y-88273500D03*
X105902000Y-88273500D03*
X106302000Y-88273500D03*
X106702000Y-88273500D03*
X107102000Y-88273500D03*
X107502000Y-88273500D03*
D39*
X108339500Y-87436000D03*
X108339500Y-87036000D03*
X108339500Y-86636000D03*
X108339500Y-86236000D03*
X108339500Y-85836000D03*
X108339500Y-85436000D03*
X108339500Y-85036000D03*
X108339500Y-84636000D03*
X108339500Y-84236000D03*
X108339500Y-83836000D03*
X108339500Y-83436000D03*
X108339500Y-83036000D03*
X108339500Y-82636000D03*
X108339500Y-82236000D03*
D38*
X107502000Y-81398500D03*
X107102000Y-81398500D03*
X106702000Y-81398500D03*
X106302000Y-81398500D03*
X105902000Y-81398500D03*
X105502000Y-81398500D03*
X105102000Y-81398500D03*
X104702000Y-81398500D03*
X104302000Y-81398500D03*
X103902000Y-81398500D03*
X103502000Y-81398500D03*
X103102000Y-81398500D03*
X102702000Y-81398500D03*
X102302000Y-81398500D03*
D39*
X101464500Y-82236000D03*
X101464500Y-82636000D03*
X101464500Y-83036000D03*
X101464500Y-83436000D03*
X101464500Y-83836000D03*
X101464500Y-84236000D03*
X101464500Y-84636000D03*
X101464500Y-85036000D03*
X101464500Y-85436000D03*
X101464500Y-85836000D03*
X101464500Y-86236000D03*
X101464500Y-86636000D03*
X101464500Y-87036000D03*
X101464500Y-87436000D03*
D40*
X104902000Y-84836000D03*
%TD*%
D16*
%TO.C,SW7*%
X155067000Y-89916000D03*
X161417000Y-89916000D03*
%TD*%
%TO.C,SW3*%
X127127000Y-90424000D03*
X133477000Y-90424000D03*
%TD*%
D41*
%TO.C,J1*%
X79502000Y-99314000D03*
D42*
X79502000Y-96774000D03*
%TD*%
D43*
%TO.C,U4*%
X109669500Y-61976000D03*
X110619500Y-61976000D03*
X111569500Y-61976000D03*
X111569500Y-59276000D03*
X109669500Y-59276000D03*
%TD*%
D18*
%TO.C,C16*%
X87222500Y-96012000D03*
X85497500Y-96012000D03*
%TD*%
D15*
%TO.C,R10*%
X79502000Y-93241500D03*
X79502000Y-91416500D03*
%TD*%
%TO.C,R12*%
X163576000Y-66952500D03*
X163576000Y-65127500D03*
%TD*%
D21*
%TO.C,C1*%
X80264000Y-64415500D03*
X80264000Y-66140500D03*
%TD*%
D17*
%TO.C,TP18*%
X91821000Y-71120000D03*
%TD*%
D22*
%TO.C,C10*%
X102108000Y-77824500D03*
X102108000Y-76099500D03*
%TD*%
D17*
%TO.C,TP17*%
X123190000Y-75692000D03*
%TD*%
D21*
%TO.C,C2*%
X89408000Y-64288500D03*
X89408000Y-66013500D03*
%TD*%
D22*
%TO.C,C17*%
X109982000Y-66648500D03*
X109982000Y-64923500D03*
%TD*%
D15*
%TO.C,R9*%
X83312000Y-93241500D03*
X83312000Y-91416500D03*
%TD*%
D44*
%TO.C,Y1*%
X121412000Y-80844000D03*
X121412000Y-89844000D03*
%TD*%
D17*
%TO.C,TP8*%
X135890000Y-64770000D03*
%TD*%
D21*
%TO.C,C13*%
X102108000Y-91593500D03*
X102108000Y-93318500D03*
%TD*%
D30*
%TO.C,C5*%
X111913500Y-82296000D03*
X113638500Y-82296000D03*
%TD*%
D23*
%TO.C,U8*%
X153162000Y-52578000D03*
X150622000Y-52578000D03*
X148082000Y-52578000D03*
X145542000Y-52578000D03*
X143002000Y-52578000D03*
X140462000Y-52578000D03*
X137922000Y-52578000D03*
X135382000Y-52578000D03*
X132842000Y-52578000D03*
X130302000Y-52578000D03*
%TD*%
M02*
