M48
; DRILL file {KiCad (6.0.5)} date Fri Aug  5 12:46:00 2022
; FORMAT={-:-/ absolute / metric / decimal}
; #@! TF.CreationDate,2022-08-05T12:46:00-07:00
; #@! TF.GenerationSoftware,Kicad,Pcbnew,(6.0.5)
; #@! TF.FileFunction,Plated,1,2,PTH
FMAT,2
METRIC
; #@! TA.AperFunction,Plated,PTH,ComponentDrill
T1C0.350
; #@! TA.AperFunction,Plated,PTH,ViaDrill
T2C0.400
; #@! TA.AperFunction,Plated,PTH,ComponentDrill
T3C0.508
; #@! TA.AperFunction,Plated,PTH,ComponentDrill
T4C0.600
; #@! TA.AperFunction,Plated,PTH,ComponentDrill
T5C0.762
; #@! TA.AperFunction,Plated,PTH,ComponentDrill
T6C0.800
; #@! TA.AperFunction,Plated,PTH,ComponentDrill
T7C1.000
; #@! TA.AperFunction,Plated,PTH,ComponentDrill
T8C1.016
; #@! TA.AperFunction,Plated,PTH,ComponentDrill
T9C1.500
%
G90
G05
T1
X103.627Y-83.561
X103.627Y-84.836
X103.627Y-86.111
X104.902Y-83.561
X104.902Y-84.836
X104.902Y-86.111
X106.177Y-83.561
X106.177Y-84.836
X106.177Y-86.111
T2
X79.248Y-62.484
X79.502Y-67.818
X81.28Y-62.484
X81.28Y-67.818
X83.058Y-62.484
X83.566Y-70.993
X85.09Y-79.756
X85.09Y-87.884
X85.852Y-62.484
X85.852Y-81.28
X85.852Y-86.868
X87.63Y-66.802
X87.884Y-62.484
X87.884Y-68.199
X88.646Y-82.042
X89.408Y-68.072
X89.916Y-82.042
X90.17Y-84.836
X90.424Y-62.484
X91.186Y-77.978
X91.186Y-82.042
X91.186Y-84.836
X91.186Y-97.79
X92.456Y-82.042
X93.472Y-82.042
X95.758Y-75.946
X95.885Y-73.406
X96.52Y-97.028
X97.282Y-69.088
X97.282Y-72.136
X99.06Y-85.598
X99.187Y-82.296
X100.584Y-94.996
X101.346Y-72.136
X102.108Y-89.916
X102.616Y-72.136
X103.124Y-89.916
X103.378Y-90.932
X103.378Y-91.948
X103.632Y-74.676
X103.632Y-78.74
X103.886Y-72.136
X104.14Y-95.504
X104.14Y-97.79
X104.722Y-91.526
X104.902Y-59.436
X104.902Y-72.644
X105.41Y-89.916
X106.426Y-59.944
X106.426Y-61.214
X106.68Y-58.166
X108.077Y-61.976
X108.204Y-66.548
X108.839Y-90.551
X108.839Y-91.567
X110.363Y-83.693
X110.617Y-57.658
X110.617Y-82.169
X115.062Y-77.597
X115.062Y-82.296
X117.348Y-85.598
X117.856Y-57.658
X117.856Y-75.184
X121.031Y-59.944
X123.19Y-95.504
X125.476Y-54.864
X127.762Y-97.79
X129.54Y-78.232
X129.794Y-81.28
X131.064Y-97.282
X131.572Y-56.134
X132.08Y-77.978
X132.08Y-83.566
X132.08Y-98.044
X132.842Y-101.346
X133.096Y-84.919
X133.35Y-82.296
X134.874Y-73.914
X135.382Y-57.404
X135.89Y-59.944
X137.922Y-90.424
X141.224Y-73.152
X141.224Y-75.692
X142.214Y-59.808
X142.748Y-79.756
X146.05Y-59.69
X147.066Y-80.264
X147.32Y-72.644
X147.32Y-77.724
X148.844Y-72.644
T3
X115.062Y-53.721
X115.062Y-54.991
X116.332Y-53.721
X116.332Y-54.991
X117.602Y-53.721
X117.602Y-54.991
X118.872Y-53.721
X118.872Y-54.991
X120.142Y-53.721
X120.142Y-54.991
T4
X78.8Y-79.5
X78.8Y-88.14
X82.98Y-79.5
X82.98Y-88.14
T5
X82.042Y-58.039
X97.282Y-58.039
T6
X104.812Y-54.356
X106.712Y-54.356
X108.712Y-54.356
T7
X79.502Y-96.774
X79.502Y-99.314
X79.629Y-76.2
X88.519Y-87.122
X91.821Y-71.12
X98.552Y-53.594
X112.141Y-73.406
X115.443Y-69.85
X121.666Y-63.754
X123.19Y-75.692
X124.206Y-60.198
X129.667Y-66.294
X135.89Y-64.77
X144.018Y-64.262
X148.082Y-64.262
X152.146Y-64.262
X152.4Y-69.596
X163.957Y-56.388
X166.116Y-85.852
T8
X130.302Y-52.578
X132.842Y-52.578
X135.382Y-52.578
X137.922Y-52.578
X140.462Y-52.578
X143.002Y-52.578
X145.542Y-52.578
X148.082Y-52.578
X150.622Y-52.578
X153.162Y-52.578
X170.434Y-61.214
X170.434Y-63.754
X170.434Y-66.294
X170.434Y-68.834
X170.434Y-71.374
X170.434Y-73.914
X170.434Y-76.454
X170.434Y-78.994
X170.434Y-81.534
T9
X102.512Y-54.356
X110.812Y-54.356
T0
M30
