%TF.GenerationSoftware,KiCad,Pcbnew,(6.0.5)*%
%TF.CreationDate,2022-08-05T12:45:28-07:00*%
%TF.ProjectId,RFIDice_V0_revised,52464944-6963-4655-9f56-305f72657669,rev?*%
%TF.SameCoordinates,Original*%
%TF.FileFunction,Copper,L1,Top*%
%TF.FilePolarity,Positive*%
%FSLAX46Y46*%
G04 Gerber Fmt 4.6, Leading zero omitted, Abs format (unit mm)*
G04 Created by KiCad (PCBNEW (6.0.5)) date 2022-08-05 12:45:28*
%MOMM*%
%LPD*%
G01*
G04 APERTURE LIST*
G04 Aperture macros list*
%AMRoundRect*
0 Rectangle with rounded corners*
0 $1 Rounding radius*
0 $2 $3 $4 $5 $6 $7 $8 $9 X,Y pos of 4 corners*
0 Add a 4 corners polygon primitive as box body*
4,1,4,$2,$3,$4,$5,$6,$7,$8,$9,$2,$3,0*
0 Add four circle primitives for the rounded corners*
1,1,$1+$1,$2,$3*
1,1,$1+$1,$4,$5*
1,1,$1+$1,$6,$7*
1,1,$1+$1,$8,$9*
0 Add four rect primitives between the rounded corners*
20,1,$1+$1,$2,$3,$4,$5,0*
20,1,$1+$1,$4,$5,$6,$7,0*
20,1,$1+$1,$6,$7,$8,$9,0*
20,1,$1+$1,$8,$9,$2,$3,0*%
G04 Aperture macros list end*
%TA.AperFunction,SMDPad,CuDef*%
%ADD10R,1.150000X0.575000*%
%TD*%
%TA.AperFunction,SMDPad,CuDef*%
%ADD11R,1.150000X0.275000*%
%TD*%
%TA.AperFunction,ComponentPad*%
%ADD12O,2.000000X1.000000*%
%TD*%
%TA.AperFunction,SMDPad,CuDef*%
%ADD13R,0.900000X0.900000*%
%TD*%
%TA.AperFunction,SMDPad,CuDef*%
%ADD14RoundRect,0.237500X0.237500X-0.250000X0.237500X0.250000X-0.237500X0.250000X-0.237500X-0.250000X0*%
%TD*%
%TA.AperFunction,SMDPad,CuDef*%
%ADD15RoundRect,0.500000X-0.500000X-0.500000X0.500000X-0.500000X0.500000X0.500000X-0.500000X0.500000X0*%
%TD*%
%TA.AperFunction,ComponentPad*%
%ADD16C,2.000000*%
%TD*%
%TA.AperFunction,SMDPad,CuDef*%
%ADD17RoundRect,0.237500X0.300000X0.237500X-0.300000X0.237500X-0.300000X-0.237500X0.300000X-0.237500X0*%
%TD*%
%TA.AperFunction,SMDPad,CuDef*%
%ADD18RoundRect,0.237500X0.250000X0.237500X-0.250000X0.237500X-0.250000X-0.237500X0.250000X-0.237500X0*%
%TD*%
%TA.AperFunction,SMDPad,CuDef*%
%ADD19R,0.152400X0.152400*%
%TD*%
%TA.AperFunction,SMDPad,CuDef*%
%ADD20RoundRect,0.237500X-0.237500X0.300000X-0.237500X-0.300000X0.237500X-0.300000X0.237500X0.300000X0*%
%TD*%
%TA.AperFunction,SMDPad,CuDef*%
%ADD21RoundRect,0.237500X0.237500X-0.300000X0.237500X0.300000X-0.237500X0.300000X-0.237500X-0.300000X0*%
%TD*%
%TA.AperFunction,ComponentPad*%
%ADD22C,1.524000*%
%TD*%
%TA.AperFunction,SMDPad,CuDef*%
%ADD23RoundRect,0.150000X-0.150000X0.587500X-0.150000X-0.587500X0.150000X-0.587500X0.150000X0.587500X0*%
%TD*%
%TA.AperFunction,SMDPad,CuDef*%
%ADD24RoundRect,0.150000X0.150000X-0.587500X0.150000X0.587500X-0.150000X0.587500X-0.150000X-0.587500X0*%
%TD*%
%TA.AperFunction,SMDPad,CuDef*%
%ADD25RoundRect,0.237500X-0.250000X-0.237500X0.250000X-0.237500X0.250000X0.237500X-0.250000X0.237500X0*%
%TD*%
%TA.AperFunction,SMDPad,CuDef*%
%ADD26RoundRect,0.237500X-0.237500X0.287500X-0.237500X-0.287500X0.237500X-0.287500X0.237500X0.287500X0*%
%TD*%
%TA.AperFunction,SMDPad,CuDef*%
%ADD27RoundRect,0.500000X0.500000X-0.500000X0.500000X0.500000X-0.500000X0.500000X-0.500000X-0.500000X0*%
%TD*%
%TA.AperFunction,SMDPad,CuDef*%
%ADD28RoundRect,0.150000X0.650000X0.150000X-0.650000X0.150000X-0.650000X-0.150000X0.650000X-0.150000X0*%
%TD*%
%TA.AperFunction,SMDPad,CuDef*%
%ADD29RoundRect,0.237500X-0.300000X-0.237500X0.300000X-0.237500X0.300000X0.237500X-0.300000X0.237500X0*%
%TD*%
%TA.AperFunction,ComponentPad*%
%ADD30C,1.422400*%
%TD*%
%TA.AperFunction,ComponentPad*%
%ADD31C,2.184400*%
%TD*%
%TA.AperFunction,SMDPad,CuDef*%
%ADD32RoundRect,0.500000X0.500000X0.500000X-0.500000X0.500000X-0.500000X-0.500000X0.500000X-0.500000X0*%
%TD*%
%TA.AperFunction,SMDPad,CuDef*%
%ADD33RoundRect,0.500000X-0.500000X0.500000X-0.500000X-0.500000X0.500000X-0.500000X0.500000X0.500000X0*%
%TD*%
%TA.AperFunction,SMDPad,CuDef*%
%ADD34R,1.560000X0.650000*%
%TD*%
%TA.AperFunction,SMDPad,CuDef*%
%ADD35RoundRect,0.250001X-0.924999X0.499999X-0.924999X-0.499999X0.924999X-0.499999X0.924999X0.499999X0*%
%TD*%
%TA.AperFunction,ComponentPad*%
%ADD36C,1.000000*%
%TD*%
%TA.AperFunction,SMDPad,CuDef*%
%ADD37RoundRect,0.050000X0.050000X-0.387500X0.050000X0.387500X-0.050000X0.387500X-0.050000X-0.387500X0*%
%TD*%
%TA.AperFunction,SMDPad,CuDef*%
%ADD38RoundRect,0.050000X0.387500X-0.050000X0.387500X0.050000X-0.387500X0.050000X-0.387500X-0.050000X0*%
%TD*%
%TA.AperFunction,ComponentPad*%
%ADD39C,0.600000*%
%TD*%
%TA.AperFunction,SMDPad,CuDef*%
%ADD40RoundRect,0.144000X1.456000X-1.456000X1.456000X1.456000X-1.456000X1.456000X-1.456000X-1.456000X0*%
%TD*%
%TA.AperFunction,ComponentPad*%
%ADD41R,1.700000X1.700000*%
%TD*%
%TA.AperFunction,ComponentPad*%
%ADD42O,1.700000X1.700000*%
%TD*%
%TA.AperFunction,SMDPad,CuDef*%
%ADD43R,0.650000X1.560000*%
%TD*%
%TA.AperFunction,SMDPad,CuDef*%
%ADD44R,2.100000X5.600000*%
%TD*%
%TA.AperFunction,ViaPad*%
%ADD45C,0.800000*%
%TD*%
%TA.AperFunction,Conductor*%
%ADD46C,0.200000*%
%TD*%
%TA.AperFunction,Conductor*%
%ADD47C,0.190500*%
%TD*%
%TA.AperFunction,Conductor*%
%ADD48C,0.250000*%
%TD*%
%TA.AperFunction,Conductor*%
%ADD49C,0.508000*%
%TD*%
%TA.AperFunction,Conductor*%
%ADD50C,0.254000*%
%TD*%
%TA.AperFunction,Conductor*%
%ADD51C,0.381000*%
%TD*%
%TA.AperFunction,Conductor*%
%ADD52C,0.304800*%
%TD*%
G04 APERTURE END LIST*
D10*
%TO.P,X1,A1B12,GND*%
%TO.N,GND1*%
X83555000Y-80620000D03*
%TO.P,X1,A4B9,VBUS*%
%TO.N,+5V*%
X83555000Y-81420000D03*
D11*
%TO.P,X1,A5,CC1*%
%TO.N,Net-(R10-Pad2)*%
X83555000Y-82570000D03*
%TO.P,X1,A6,D+*%
%TO.N,/USB_D+*%
X83555000Y-83570000D03*
%TO.P,X1,A7,D-*%
%TO.N,/USB_D-*%
X83555000Y-84070000D03*
%TO.P,X1,A8,SBU1*%
%TO.N,unconnected-(X1-PadA8)*%
X83555000Y-85070000D03*
D10*
%TO.P,X1,B1A12,GND*%
%TO.N,GND1*%
X83555000Y-87020000D03*
%TO.P,X1,B4A9,VBUS*%
%TO.N,+5V*%
X83555000Y-86220000D03*
D11*
%TO.P,X1,B5,CC2*%
%TO.N,Net-(R9-Pad2)*%
X83555000Y-85570000D03*
%TO.P,X1,B6,D+*%
%TO.N,/USB_D+*%
X83555000Y-84570000D03*
%TO.P,X1,B7,D-*%
%TO.N,/USB_D-*%
X83555000Y-83070000D03*
%TO.P,X1,B8,SBU2*%
%TO.N,unconnected-(X1-PadB8)*%
X83555000Y-82070000D03*
D12*
%TO.P,X1,M1*%
%TO.N,N/C*%
X82980000Y-79500000D03*
%TO.P,X1,M2*%
X82980000Y-88140000D03*
%TO.P,X1,M3*%
X78800000Y-79500000D03*
%TO.P,X1,M4*%
X78800000Y-88140000D03*
%TD*%
D13*
%TO.P,RN2,1,common*%
%TO.N,+3V3*%
X128302000Y-73382000D03*
%TO.P,RN2,2,R1*%
%TO.N,/BTN4*%
X129642000Y-73382000D03*
%TO.P,RN2,3,R2*%
%TO.N,/BTN3*%
X130962000Y-73382000D03*
%TO.P,RN2,4,R3*%
%TO.N,/BTN2*%
X132302000Y-73382000D03*
%TO.P,RN2,5,R4*%
%TO.N,/BTN1*%
X132302000Y-70382000D03*
%TO.P,RN2,6*%
%TO.N,N/C*%
X130962000Y-70382000D03*
%TO.P,RN2,7*%
X129642000Y-70382000D03*
%TO.P,RN2,8*%
X128302000Y-70382000D03*
%TD*%
%TO.P,RN1,1,common*%
%TO.N,+3V3*%
X138716000Y-71858000D03*
%TO.P,RN1,2,R1*%
%TO.N,/BTN8*%
X140056000Y-71858000D03*
%TO.P,RN1,3,R2*%
%TO.N,/BTN7*%
X141376000Y-71858000D03*
%TO.P,RN1,4,R3*%
%TO.N,/BTN6*%
X142716000Y-71858000D03*
%TO.P,RN1,5,R4*%
%TO.N,/BTN5*%
X142716000Y-68858000D03*
%TO.P,RN1,6*%
%TO.N,N/C*%
X141376000Y-68858000D03*
%TO.P,RN1,7*%
X140056000Y-68858000D03*
%TO.P,RN1,8*%
X138716000Y-68858000D03*
%TD*%
D14*
%TO.P,R7,1*%
%TO.N,/BATT_LOW_STAT*%
X112522000Y-66698500D03*
%TO.P,R7,2*%
%TO.N,+BATT*%
X112522000Y-64873500D03*
%TD*%
D15*
%TO.P,SW8,1,1*%
%TO.N,/BTN7*%
X155067000Y-81788000D03*
%TO.P,SW8,2,2*%
%TO.N,GND*%
X161417000Y-81788000D03*
%TD*%
D16*
%TO.P,TP13,1,1*%
%TO.N,/I2C0_SDA*%
X163957000Y-56388000D03*
%TD*%
%TO.P,TP12,1,1*%
%TO.N,/I2C0_SCL*%
X152400000Y-69596000D03*
%TD*%
%TO.P,TP16,1,1*%
%TO.N,/SWD*%
X121666000Y-63754000D03*
%TD*%
%TO.P,TP2,1,1*%
%TO.N,GND1*%
X79629000Y-76200000D03*
%TD*%
%TO.P,TP7,1,1*%
%TO.N,/DISP_DATA{slash}COMMAND*%
X124206000Y-60198000D03*
%TD*%
D17*
%TO.P,C9,1*%
%TO.N,/HALF_BATT_REF*%
X98652500Y-74676000D03*
%TO.P,C9,2*%
%TO.N,GND*%
X96927500Y-74676000D03*
%TD*%
D16*
%TO.P,TP9,1,1*%
%TO.N,/SPI_TX*%
X144018000Y-64262000D03*
%TD*%
D18*
%TO.P,R15,1*%
%TO.N,+3V3*%
X99718500Y-77855508D03*
%TO.P,R15,2*%
%TO.N,/ADC_VRef*%
X97893500Y-77855508D03*
%TD*%
D19*
%TO.P,U5,A1,IN*%
%TO.N,+BATT*%
X102491800Y-70055994D03*
%TO.P,U5,A2,OUT*%
%TO.N,+3V3*%
X102841800Y-70055994D03*
%TO.P,U5,B1,EN*%
%TO.N,unconnected-(U5-PadB1)*%
X102491800Y-70406006D03*
%TO.P,U5,B2,GND*%
%TO.N,GND*%
X102841800Y-70406006D03*
%TD*%
D20*
%TO.P,C12,1*%
%TO.N,+3V3*%
X105918000Y-91593500D03*
%TO.P,C12,2*%
%TO.N,GND*%
X105918000Y-93318500D03*
%TD*%
D21*
%TO.P,C8,1*%
%TO.N,+3V3*%
X105156000Y-77824500D03*
%TO.P,C8,2*%
%TO.N,GND*%
X105156000Y-76099500D03*
%TD*%
D22*
%TO.P,BT1,1,+*%
%TO.N,+BATT*%
X97282000Y-58039000D03*
%TO.P,BT1,2,-*%
%TO.N,GND1*%
X82042000Y-58039000D03*
%TD*%
D17*
%TO.P,C21,1*%
%TO.N,/ADC_VRef*%
X90270500Y-79502000D03*
%TO.P,C21,2*%
%TO.N,GND*%
X88545500Y-79502000D03*
%TD*%
D20*
%TO.P,C4,1*%
%TO.N,+3V3*%
X105460800Y-69241500D03*
%TO.P,C4,2*%
%TO.N,GND*%
X105460800Y-70966500D03*
%TD*%
D23*
%TO.P,Q1,1,D*%
%TO.N,GND*%
X104963000Y-61419500D03*
%TO.P,Q1,2,G*%
%TO.N,/BATT_LOW_STAT*%
X103063000Y-61419500D03*
%TO.P,Q1,3,S*%
%TO.N,GND1*%
X104013000Y-63294500D03*
%TD*%
D18*
%TO.P,R14,1*%
%TO.N,/HALF_BATT_REF*%
X94384500Y-77978000D03*
%TO.P,R14,2*%
%TO.N,GND*%
X92559500Y-77978000D03*
%TD*%
D16*
%TO.P,TP10,1,1*%
%TO.N,/SPI_SCK*%
X148082000Y-64262000D03*
%TD*%
%TO.P,TP15,1,1*%
%TO.N,/~{RESET}*%
X115443000Y-69850000D03*
%TD*%
D17*
%TO.P,C7,1*%
%TO.N,+1V1*%
X96874500Y-80264000D03*
%TO.P,C7,2*%
%TO.N,GND*%
X95149500Y-80264000D03*
%TD*%
D22*
%TO.P,U2,1,3.3V*%
%TO.N,+BATT*%
X170434000Y-61214000D03*
%TO.P,U2,2,SCK*%
%TO.N,unconnected-(U2-Pad2)*%
X170434000Y-63754000D03*
%TO.P,U2,3,MISO*%
%TO.N,unconnected-(U2-Pad3)*%
X170434000Y-66294000D03*
%TO.P,U2,4,MOSI/SDA/TX*%
%TO.N,/I2C0_SDA*%
X170434000Y-68834000D03*
%TO.P,U2,5,SSEL/SCL/RX*%
%TO.N,/I2C0_SCL*%
X170434000Y-71374000D03*
%TO.P,U2,6,RSTOUT_N*%
%TO.N,/PN532_RSTOUT_N*%
X170434000Y-73914000D03*
%TO.P,U2,7,IRQ*%
%TO.N,/PN532_IRQ*%
X170434000Y-76454000D03*
%TO.P,U2,8,GND*%
%TO.N,GND*%
X170434000Y-78994000D03*
%TO.P,U2,9,5.0V*%
%TO.N,unconnected-(U2-Pad9)*%
X170434000Y-81534000D03*
%TD*%
D21*
%TO.P,C19,1*%
%TO.N,GND*%
X117348000Y-83920500D03*
%TO.P,C19,2*%
%TO.N,Net-(C19-Pad2)*%
X117348000Y-82195500D03*
%TD*%
%TO.P,C14,1*%
%TO.N,+3V3*%
X108204000Y-77824500D03*
%TO.P,C14,2*%
%TO.N,GND*%
X108204000Y-76099500D03*
%TD*%
D20*
%TO.P,C18,1*%
%TO.N,GND*%
X117348000Y-87275500D03*
%TO.P,C18,2*%
%TO.N,/XIN*%
X117348000Y-89000500D03*
%TD*%
D16*
%TO.P,TP14,1,1*%
%TO.N,/PN532_IRQ*%
X166116000Y-85852000D03*
%TD*%
D24*
%TO.P,U3,1,K*%
%TO.N,GND*%
X88458000Y-75867500D03*
%TO.P,U3,2,A*%
%TO.N,/ADC_VRef*%
X90358000Y-75867500D03*
%TO.P,U3,3*%
%TO.N,N/C*%
X89408000Y-73992500D03*
%TD*%
D18*
%TO.P,R1,1*%
%TO.N,Net-(R1-Pad1)*%
X82192500Y-69723000D03*
%TO.P,R1,2*%
%TO.N,GND1*%
X80367500Y-69723000D03*
%TD*%
%TO.P,R4,1*%
%TO.N,/2USB_D-*%
X97203900Y-82499200D03*
%TO.P,R4,2*%
%TO.N,/USB_D-*%
X95378900Y-82499200D03*
%TD*%
D25*
%TO.P,R5,1*%
%TO.N,/~{USB_BOOT}*%
X96623500Y-100330000D03*
%TO.P,R5,2*%
%TO.N,/QSPI_SS*%
X98448500Y-100330000D03*
%TD*%
D26*
%TO.P,D1,1,K*%
%TO.N,Net-(D1-Pad1)*%
X85344000Y-69483000D03*
%TO.P,D1,2,A*%
%TO.N,Net-(D1-Pad2)*%
X85344000Y-71233000D03*
%TD*%
D27*
%TO.P,SW4,1,1*%
%TO.N,/BTN3*%
X137922000Y-101219000D03*
%TO.P,SW4,2,2*%
%TO.N,GND*%
X137922000Y-94869000D03*
%TD*%
D28*
%TO.P,U7,1,~{CS}*%
%TO.N,/QSPI_SS*%
X98342000Y-95250000D03*
%TO.P,U7,2,DO(IO1)*%
%TO.N,/QSPL_SD1*%
X98342000Y-93980000D03*
%TO.P,U7,3,IO2*%
%TO.N,/QSPL_SD2*%
X98342000Y-92710000D03*
%TO.P,U7,4,GND*%
%TO.N,GND*%
X98342000Y-91440000D03*
%TO.P,U7,5,DI(IO0)*%
%TO.N,/QSPL_SD0*%
X91142000Y-91440000D03*
%TO.P,U7,6,CLK*%
%TO.N,/QSPI_SCLK*%
X91142000Y-92710000D03*
%TO.P,U7,7,IO3*%
%TO.N,/QSPL_SD3*%
X91142000Y-93980000D03*
%TO.P,U7,8,VCC*%
%TO.N,+3V3*%
X91142000Y-95250000D03*
%TD*%
D15*
%TO.P,SW6,1,1*%
%TO.N,/BTN5*%
X155067000Y-98044000D03*
%TO.P,SW6,2,2*%
%TO.N,GND*%
X161417000Y-98044000D03*
%TD*%
D29*
%TO.P,C15,1*%
%TO.N,+3V3*%
X112929500Y-83947000D03*
%TO.P,C15,2*%
%TO.N,GND*%
X114654500Y-83947000D03*
%TD*%
D18*
%TO.P,R3,1*%
%TO.N,/2USB_D+*%
X97203900Y-84150200D03*
%TO.P,R3,2*%
%TO.N,/USB_D+*%
X95378900Y-84150200D03*
%TD*%
D17*
%TO.P,C6,1*%
%TO.N,+1V1*%
X96874500Y-88138000D03*
%TO.P,C6,2*%
%TO.N,GND*%
X95149500Y-88138000D03*
%TD*%
D15*
%TO.P,SW9,1,1*%
%TO.N,/BTN8*%
X155067000Y-73914000D03*
%TO.P,SW9,2,2*%
%TO.N,GND*%
X161417000Y-73914000D03*
%TD*%
D25*
%TO.P,R13,1*%
%TO.N,+BATT*%
X92559500Y-75946000D03*
%TO.P,R13,2*%
%TO.N,/HALF_BATT_REF*%
X94384500Y-75946000D03*
%TD*%
D16*
%TO.P,TP3,1,1*%
%TO.N,GND*%
X88519000Y-87122000D03*
%TD*%
D18*
%TO.P,R8,1*%
%TO.N,Net-(C19-Pad2)*%
X114704500Y-85725000D03*
%TO.P,R8,2*%
%TO.N,/XOUT*%
X112879500Y-85725000D03*
%TD*%
D30*
%TO.P,SW1,1*%
%TO.N,unconnected-(SW1-Pad1)*%
X108712004Y-54356000D03*
%TO.P,SW1,2*%
%TO.N,/BATT_LOW_STAT*%
X106712004Y-54356000D03*
%TO.P,SW1,3*%
%TO.N,GND1*%
X104812004Y-54356000D03*
D31*
%TO.P,SW1,MT1*%
%TO.N,N/C*%
X110812004Y-54356000D03*
%TO.P,SW1,MT2*%
X102512004Y-54356000D03*
%TD*%
D25*
%TO.P,R2,1*%
%TO.N,+5V*%
X80367500Y-72009000D03*
%TO.P,R2,2*%
%TO.N,Net-(D1-Pad2)*%
X82192500Y-72009000D03*
%TD*%
D32*
%TO.P,SW5,1,1*%
%TO.N,/BTN4*%
X148717000Y-90170000D03*
%TO.P,SW5,2,2*%
%TO.N,GND*%
X142367000Y-90170000D03*
%TD*%
D33*
%TO.P,SW2,1,1*%
%TO.N,/BTN1*%
X137922000Y-79375000D03*
%TO.P,SW2,2,2*%
%TO.N,GND*%
X137922000Y-85725000D03*
%TD*%
D16*
%TO.P,TP4,1,1*%
%TO.N,+BATT*%
X98552000Y-53594000D03*
%TD*%
%TO.P,TP5,1,1*%
%TO.N,+3V3*%
X129667000Y-66294000D03*
%TD*%
D25*
%TO.P,R6,1*%
%TO.N,+3V3*%
X91797500Y-100330000D03*
%TO.P,R6,2*%
%TO.N,/QSPI_SS*%
X93622500Y-100330000D03*
%TD*%
D34*
%TO.P,U1,1,STAT*%
%TO.N,Net-(D1-Pad1)*%
X85678000Y-66675000D03*
%TO.P,U1,2,VSS*%
%TO.N,GND1*%
X85678000Y-65725000D03*
%TO.P,U1,3,VBAT*%
%TO.N,+BATT*%
X85678000Y-64775000D03*
%TO.P,U1,4,VDD*%
%TO.N,+5V*%
X82978000Y-64775000D03*
%TO.P,U1,5,PROG*%
%TO.N,Net-(R1-Pad1)*%
X82978000Y-66675000D03*
%TD*%
D16*
%TO.P,TP11,1,1*%
%TO.N,/SPI_RX*%
X152146000Y-64262000D03*
%TD*%
%TO.P,TP1,1,1*%
%TO.N,/BATT_LOW_STAT*%
X112141000Y-73406000D03*
%TD*%
D14*
%TO.P,R11,1*%
%TO.N,/I2C0_SCL*%
X160528000Y-66952500D03*
%TO.P,R11,2*%
%TO.N,+3V3*%
X160528000Y-65127500D03*
%TD*%
D35*
%TO.P,C20,1*%
%TO.N,+BATT*%
X94742000Y-65050000D03*
%TO.P,C20,2*%
%TO.N,GND1*%
X94742000Y-68300000D03*
%TD*%
D17*
%TO.P,C11,1*%
%TO.N,+3V3*%
X96874500Y-86106000D03*
%TO.P,C11,2*%
%TO.N,GND*%
X95149500Y-86106000D03*
%TD*%
D36*
%TO.P,J2,1,VCC*%
%TO.N,+3V3*%
X120142000Y-53721000D03*
%TO.P,J2,2,SWDIO*%
%TO.N,/SWD*%
X120142000Y-54991000D03*
%TO.P,J2,3,GND*%
%TO.N,GND*%
X118872000Y-53721000D03*
%TO.P,J2,4,SWDCLK*%
%TO.N,/SWCLK*%
X118872000Y-54991000D03*
%TO.P,J2,5,GND*%
%TO.N,GND*%
X117602000Y-53721000D03*
%TO.P,J2,6,SWO*%
%TO.N,unconnected-(J2-Pad6)*%
X117602000Y-54991000D03*
%TO.P,J2,7*%
%TO.N,N/C*%
X116332000Y-53721000D03*
%TO.P,J2,8*%
X116332000Y-54991000D03*
%TO.P,J2,9,GND*%
%TO.N,GND*%
X115062000Y-53721000D03*
%TO.P,J2,10,~{RESET}*%
%TO.N,/~{RESET}*%
X115062000Y-54991000D03*
%TD*%
D20*
%TO.P,C3,1*%
%TO.N,+BATT*%
X100126800Y-69241500D03*
%TO.P,C3,2*%
%TO.N,GND*%
X100126800Y-70966500D03*
%TD*%
D37*
%TO.P,U6,1,IOVDD*%
%TO.N,+3V3*%
X102302000Y-88273500D03*
%TO.P,U6,2,GPIO0*%
%TO.N,unconnected-(U6-Pad2)*%
X102702000Y-88273500D03*
%TO.P,U6,3,GPIO1*%
%TO.N,unconnected-(U6-Pad3)*%
X103102000Y-88273500D03*
%TO.P,U6,4,GPIO2*%
%TO.N,/PN532_RSTOUT_N*%
X103502000Y-88273500D03*
%TO.P,U6,5,GPIO3*%
%TO.N,/PN532_IRQ*%
X103902000Y-88273500D03*
%TO.P,U6,6,GPIO4*%
%TO.N,/I2C0_SDA*%
X104302000Y-88273500D03*
%TO.P,U6,7,GPIO5*%
%TO.N,/I2C0_SCL*%
X104702000Y-88273500D03*
%TO.P,U6,8,GPIO6*%
%TO.N,/BTN1*%
X105102000Y-88273500D03*
%TO.P,U6,9,GPIO7*%
%TO.N,/BTN2*%
X105502000Y-88273500D03*
%TO.P,U6,10,IOVDD*%
%TO.N,+3V3*%
X105902000Y-88273500D03*
%TO.P,U6,11,GPIO8*%
%TO.N,/BTN3*%
X106302000Y-88273500D03*
%TO.P,U6,12,GPIO9*%
%TO.N,/BTN4*%
X106702000Y-88273500D03*
%TO.P,U6,13,GPIO10*%
%TO.N,/BTN5*%
X107102000Y-88273500D03*
%TO.P,U6,14,GPIO11*%
%TO.N,/BTN6*%
X107502000Y-88273500D03*
D38*
%TO.P,U6,15,GPIO12*%
%TO.N,/BTN7*%
X108339500Y-87436000D03*
%TO.P,U6,16,GPIO13*%
%TO.N,/BTN8*%
X108339500Y-87036000D03*
%TO.P,U6,17,GPIO14*%
%TO.N,unconnected-(U6-Pad17)*%
X108339500Y-86636000D03*
%TO.P,U6,18,GPIO15*%
%TO.N,unconnected-(U6-Pad18)*%
X108339500Y-86236000D03*
%TO.P,U6,19,TESTEN*%
%TO.N,GND*%
X108339500Y-85836000D03*
%TO.P,U6,20,XIN*%
%TO.N,/XIN*%
X108339500Y-85436000D03*
%TO.P,U6,21,XOUT*%
%TO.N,/XOUT*%
X108339500Y-85036000D03*
%TO.P,U6,22,IOVDD*%
%TO.N,+3V3*%
X108339500Y-84636000D03*
%TO.P,U6,23,DVDD*%
%TO.N,+1V1*%
X108339500Y-84236000D03*
%TO.P,U6,24,SWCLK*%
%TO.N,/SWCLK*%
X108339500Y-83836000D03*
%TO.P,U6,25,SWD*%
%TO.N,/SWD*%
X108339500Y-83436000D03*
%TO.P,U6,26,RUN*%
%TO.N,/~{RESET}*%
X108339500Y-83036000D03*
%TO.P,U6,27,GPIO16*%
%TO.N,/SPI_RX*%
X108339500Y-82636000D03*
%TO.P,U6,28,GPIO17*%
%TO.N,/SPI_CS*%
X108339500Y-82236000D03*
D37*
%TO.P,U6,29,GPIO18*%
%TO.N,/SPI_SCK*%
X107502000Y-81398500D03*
%TO.P,U6,30,GPIO19*%
%TO.N,/SPI_TX*%
X107102000Y-81398500D03*
%TO.P,U6,31,GPIO20*%
%TO.N,/DISP_RST*%
X106702000Y-81398500D03*
%TO.P,U6,32,GPIO21*%
%TO.N,/DISP_DATA{slash}COMMAND*%
X106302000Y-81398500D03*
%TO.P,U6,33,IOVDD*%
%TO.N,+3V3*%
X105902000Y-81398500D03*
%TO.P,U6,34,GPIO22*%
%TO.N,unconnected-(U6-Pad34)*%
X105502000Y-81398500D03*
%TO.P,U6,35,GPIO23*%
%TO.N,unconnected-(U6-Pad35)*%
X105102000Y-81398500D03*
%TO.P,U6,36,GPIO24*%
%TO.N,unconnected-(U6-Pad36)*%
X104702000Y-81398500D03*
%TO.P,U6,37,GPIO25*%
%TO.N,unconnected-(U6-Pad37)*%
X104302000Y-81398500D03*
%TO.P,U6,38,GPIO26_ADC0*%
%TO.N,/HALF_BATT_REF*%
X103902000Y-81398500D03*
%TO.P,U6,39,GPIO27_ADC1*%
%TO.N,unconnected-(U6-Pad39)*%
X103502000Y-81398500D03*
%TO.P,U6,40,GPIO28_ADC2*%
%TO.N,unconnected-(U6-Pad40)*%
X103102000Y-81398500D03*
%TO.P,U6,41,GPIO29_ADC3*%
%TO.N,unconnected-(U6-Pad41)*%
X102702000Y-81398500D03*
%TO.P,U6,42,IOVDD*%
%TO.N,+3V3*%
X102302000Y-81398500D03*
D38*
%TO.P,U6,43,ADC_AVDD*%
%TO.N,/ADC_VRef*%
X101464500Y-82236000D03*
%TO.P,U6,44,VREG_IN*%
%TO.N,+3V3*%
X101464500Y-82636000D03*
%TO.P,U6,45,VREG_VOUT*%
%TO.N,+1V1*%
X101464500Y-83036000D03*
%TO.P,U6,46,USB_DM*%
%TO.N,/2USB_D-*%
X101464500Y-83436000D03*
%TO.P,U6,47,USB_DP*%
%TO.N,/2USB_D+*%
X101464500Y-83836000D03*
%TO.P,U6,48,USB_VDD*%
%TO.N,+3V3*%
X101464500Y-84236000D03*
%TO.P,U6,49,IOVDD*%
X101464500Y-84636000D03*
%TO.P,U6,50,DVDD*%
%TO.N,+1V1*%
X101464500Y-85036000D03*
%TO.P,U6,51,QSPI_SD3*%
%TO.N,/QSPL_SD3*%
X101464500Y-85436000D03*
%TO.P,U6,52,QSPI_SCLK*%
%TO.N,/QSPI_SCLK*%
X101464500Y-85836000D03*
%TO.P,U6,53,QSPI_SD0*%
%TO.N,/QSPL_SD0*%
X101464500Y-86236000D03*
%TO.P,U6,54,QSPI_SD2*%
%TO.N,/QSPL_SD2*%
X101464500Y-86636000D03*
%TO.P,U6,55,QSPI_SD1*%
%TO.N,/QSPL_SD1*%
X101464500Y-87036000D03*
%TO.P,U6,56,QSPI_SS*%
%TO.N,/QSPI_SS*%
X101464500Y-87436000D03*
D39*
%TO.P,U6,57,GND*%
%TO.N,GND*%
X104902000Y-83561000D03*
X103627000Y-83561000D03*
X103627000Y-86111000D03*
X103627000Y-84836000D03*
X104902000Y-86111000D03*
X106177000Y-84836000D03*
X104902000Y-84836000D03*
X106177000Y-86111000D03*
D40*
X104902000Y-84836000D03*
D39*
X106177000Y-83561000D03*
%TD*%
D15*
%TO.P,SW7,1,1*%
%TO.N,/BTN6*%
X155067000Y-89916000D03*
%TO.P,SW7,2,2*%
%TO.N,GND*%
X161417000Y-89916000D03*
%TD*%
%TO.P,SW3,1,1*%
%TO.N,/BTN2*%
X127127000Y-90424000D03*
%TO.P,SW3,2,2*%
%TO.N,GND*%
X133477000Y-90424000D03*
%TD*%
D41*
%TO.P,J1,1,Pin_1*%
%TO.N,/~{USB_BOOT}*%
X79502000Y-99314000D03*
D42*
%TO.P,J1,2,Pin_2*%
%TO.N,GND*%
X79502000Y-96774000D03*
%TD*%
D43*
%TO.P,U4,1,OUT*%
%TO.N,/BATT_LOW_STAT*%
X109669500Y-61976000D03*
%TO.P,U4,2,V_DD*%
%TO.N,+BATT*%
X110619500Y-61976000D03*
%TO.P,U4,3,GND*%
%TO.N,GND1*%
X111569500Y-61976000D03*
%TO.P,U4,4,NC*%
%TO.N,unconnected-(U4-Pad4)*%
X111569500Y-59276000D03*
%TO.P,U4,5,NC*%
%TO.N,unconnected-(U4-Pad5)*%
X109669500Y-59276000D03*
%TD*%
D17*
%TO.P,C16,1*%
%TO.N,+3V3*%
X87222500Y-96012000D03*
%TO.P,C16,2*%
%TO.N,GND*%
X85497500Y-96012000D03*
%TD*%
D14*
%TO.P,R10,1*%
%TO.N,GND1*%
X79502000Y-93241500D03*
%TO.P,R10,2*%
%TO.N,Net-(R10-Pad2)*%
X79502000Y-91416500D03*
%TD*%
%TO.P,R12,1*%
%TO.N,/I2C0_SDA*%
X163576000Y-66952500D03*
%TO.P,R12,2*%
%TO.N,+3V3*%
X163576000Y-65127500D03*
%TD*%
D20*
%TO.P,C1,1*%
%TO.N,+5V*%
X80264000Y-64415500D03*
%TO.P,C1,2*%
%TO.N,GND1*%
X80264000Y-66140500D03*
%TD*%
D16*
%TO.P,TP18,1,1*%
%TO.N,/HALF_BATT_REF*%
X91821000Y-71120000D03*
%TD*%
D21*
%TO.P,C10,1*%
%TO.N,+3V3*%
X102108000Y-77824500D03*
%TO.P,C10,2*%
%TO.N,GND*%
X102108000Y-76099500D03*
%TD*%
D16*
%TO.P,TP17,1,1*%
%TO.N,/SWCLK*%
X123190000Y-75692000D03*
%TD*%
D20*
%TO.P,C2,1*%
%TO.N,+BATT*%
X89408000Y-64288500D03*
%TO.P,C2,2*%
%TO.N,GND1*%
X89408000Y-66013500D03*
%TD*%
D21*
%TO.P,C17,1*%
%TO.N,/BATT_LOW_STAT*%
X109982000Y-66648500D03*
%TO.P,C17,2*%
%TO.N,GND1*%
X109982000Y-64923500D03*
%TD*%
D14*
%TO.P,R9,1*%
%TO.N,GND1*%
X83312000Y-93241500D03*
%TO.P,R9,2*%
%TO.N,Net-(R9-Pad2)*%
X83312000Y-91416500D03*
%TD*%
D44*
%TO.P,Y1,1,1*%
%TO.N,Net-(C19-Pad2)*%
X121412000Y-80844000D03*
%TO.P,Y1,2,2*%
%TO.N,/XIN*%
X121412000Y-89844000D03*
%TD*%
D16*
%TO.P,TP8,1,1*%
%TO.N,/SPI_CS*%
X135890000Y-64770000D03*
%TD*%
D20*
%TO.P,C13,1*%
%TO.N,+3V3*%
X102108000Y-91593500D03*
%TO.P,C13,2*%
%TO.N,GND*%
X102108000Y-93318500D03*
%TD*%
D29*
%TO.P,C5,1*%
%TO.N,+1V1*%
X111913500Y-82296000D03*
%TO.P,C5,2*%
%TO.N,GND*%
X113638500Y-82296000D03*
%TD*%
D22*
%TO.P,U8,1,Lite*%
%TO.N,+3V3*%
X153162000Y-52578000D03*
%TO.P,U8,2,MISO*%
%TO.N,/SPI_RX*%
X150622000Y-52578000D03*
%TO.P,U8,3,SCK*%
%TO.N,/SPI_SCK*%
X148082000Y-52578000D03*
%TO.P,U8,4,MOSI*%
%TO.N,/SPI_TX*%
X145542000Y-52578000D03*
%TO.P,U8,5,TFT_CS*%
%TO.N,unconnected-(U8-Pad5)*%
X143002000Y-52578000D03*
%TO.P,U8,6,Card_CS*%
%TO.N,/SPI_CS*%
X140462000Y-52578000D03*
%TO.P,U8,7,D/C*%
%TO.N,/DISP_DATA{slash}COMMAND*%
X137922000Y-52578000D03*
%TO.P,U8,8,Reset*%
%TO.N,/DISP_RST*%
X135382000Y-52578000D03*
%TO.P,U8,9,VCC*%
%TO.N,+BATT*%
X132842000Y-52578000D03*
%TO.P,U8,10,GND*%
%TO.N,GND*%
X130302000Y-52578000D03*
%TD*%
D45*
%TO.N,GND*%
X90170000Y-84836000D03*
X92456000Y-82042000D03*
X91186000Y-82042000D03*
X89916000Y-82042000D03*
%TO.N,*%
X81280000Y-67818000D03*
X79502000Y-67818000D03*
X87630000Y-66802000D03*
X89408000Y-68072000D03*
X90424000Y-62484000D03*
X87884000Y-62484000D03*
X85852000Y-62484000D03*
X83058000Y-62484000D03*
X81280000Y-62484000D03*
X79248000Y-62484000D03*
%TO.N,/BTN5*%
X147066000Y-80264000D03*
X148844000Y-72644000D03*
%TO.N,/BTN6*%
X147320000Y-77724000D03*
X147320000Y-72644000D03*
%TO.N,/BTN7*%
X141224000Y-75692000D03*
X141224000Y-73152000D03*
%TO.N,/BTN2*%
X132080000Y-83566000D03*
X129794000Y-81280000D03*
%TO.N,/BTN3*%
X133096000Y-84919100D03*
X132080000Y-77978000D03*
%TO.N,/BTN1*%
X134874000Y-73914000D03*
X142748000Y-79756000D03*
%TO.N,/BTN4*%
X129540000Y-78232000D03*
X133350000Y-82296000D03*
%TO.N,GND*%
X106426000Y-61214000D03*
X104902000Y-59436000D03*
X101346000Y-72136000D03*
X102616000Y-72136000D03*
X103886000Y-72136000D03*
X106426000Y-59944000D03*
%TO.N,/PN532_RSTOUT_N*%
X131064000Y-97282000D03*
X127762000Y-97790000D03*
%TO.N,/BATT_LOW_STAT*%
X108204000Y-66548000D03*
%TO.N,GND*%
X104902000Y-72644000D03*
%TO.N,/BATT_LOW_STAT*%
X106680000Y-58166000D03*
X108077000Y-61976000D03*
%TO.N,GND1*%
X87884000Y-68199000D03*
%TO.N,+3V3*%
X91186000Y-97790000D03*
X104140000Y-97790000D03*
X125476000Y-54864000D03*
X121031000Y-59944000D03*
%TO.N,GND*%
X115062000Y-82296000D03*
X117348000Y-85598000D03*
X93472000Y-82042000D03*
X88646000Y-82042000D03*
X137922000Y-90424000D03*
X95758000Y-75946000D03*
X100584000Y-94996000D03*
X91186000Y-84836000D03*
X91186000Y-77978000D03*
X96520000Y-97028000D03*
X97282000Y-72136000D03*
%TO.N,+5V*%
X85852000Y-86868000D03*
X85852000Y-81280000D03*
%TO.N,+BATT*%
X97282000Y-69088000D03*
X110617000Y-57658000D03*
%TO.N,GND1*%
X85090000Y-87884000D03*
X85090000Y-79756000D03*
X83566000Y-70993000D03*
%TO.N,/I2C0_SCL*%
X103378000Y-91948000D03*
%TO.N,/I2C0_SDA*%
X103378000Y-90932000D03*
%TO.N,/PN532_RSTOUT_N*%
X102108000Y-89916000D03*
%TO.N,/PN532_IRQ*%
X103124000Y-89916000D03*
X104140000Y-95504000D03*
X132080000Y-98044000D03*
%TO.N,/SPI_SCK*%
X146050000Y-59690000D03*
%TO.N,/SPI_TX*%
X142213905Y-59808301D03*
%TO.N,/SPI_CS*%
X135382000Y-57404000D03*
X135890000Y-59944000D03*
%TO.N,/DISP_DATA{slash}COMMAND*%
X131572000Y-56134000D03*
%TO.N,+1V1*%
X99187000Y-82296000D03*
X99060000Y-85598000D03*
X110363000Y-83693000D03*
%TO.N,/BTN1*%
X104721962Y-91525965D03*
X108839000Y-91567000D03*
%TO.N,/BTN2*%
X105410000Y-89916000D03*
X108839000Y-90551000D03*
%TO.N,/BTN3*%
X132842000Y-101346000D03*
X123190000Y-95504000D03*
%TO.N,/SWCLK*%
X110617000Y-82169000D03*
%TO.N,/SWD*%
X117856000Y-75184000D03*
X117856000Y-57658000D03*
%TO.N,/HALF_BATT_REF*%
X103632000Y-78740000D03*
X103632000Y-74676000D03*
X95885000Y-73406000D03*
%TO.N,/~{RESET}*%
X115062000Y-77597000D03*
%TD*%
D46*
%TO.N,GND*%
X93472000Y-82042000D02*
X93472000Y-81941500D01*
X93472000Y-81941500D02*
X95149500Y-80264000D01*
D47*
%TO.N,/BTN5*%
X146558000Y-80772000D02*
X147066000Y-80264000D01*
X146050000Y-80772000D02*
X146558000Y-80772000D01*
X146050000Y-80772000D02*
X152908000Y-87630000D01*
X142659580Y-77381580D02*
X146050000Y-80772000D01*
X145058000Y-68858000D02*
X148844000Y-72644000D01*
X142716000Y-68858000D02*
X145058000Y-68858000D01*
%TO.N,/BTN6*%
X147320000Y-77724000D02*
X146558000Y-78486000D01*
X146534000Y-71858000D02*
X147320000Y-72644000D01*
X142716000Y-71858000D02*
X146534000Y-71858000D01*
%TO.N,/BTN7*%
X141212740Y-75703260D02*
X141224000Y-75692000D01*
X141212740Y-76696740D02*
X141212740Y-75703260D01*
X141212740Y-76696740D02*
X136226495Y-76696740D01*
X151880740Y-76696740D02*
X141212740Y-76696740D01*
X141376000Y-73000000D02*
X141224000Y-73152000D01*
X141376000Y-71858000D02*
X141376000Y-73000000D01*
%TO.N,/BTN8*%
X140056000Y-73812000D02*
X139954000Y-73914000D01*
X140056000Y-71858000D02*
X140056000Y-73812000D01*
X139954000Y-73914000D02*
X155067000Y-73914000D01*
X138524979Y-73914000D02*
X139954000Y-73914000D01*
%TO.N,/BTN2*%
X127127000Y-88519000D02*
X127127000Y-90424000D01*
X132080000Y-83566000D02*
X127127000Y-88519000D01*
X131572000Y-79756000D02*
X130048000Y-81280000D01*
X130048000Y-81280000D02*
X129794000Y-81280000D01*
X132842000Y-78486000D02*
X131572000Y-79756000D01*
X132842000Y-76708000D02*
X132842000Y-78486000D01*
%TO.N,/BTN3*%
X131711161Y-93611161D02*
X132842000Y-94742000D01*
X132842000Y-94742000D02*
X132842000Y-101346000D01*
X131711161Y-89014839D02*
X131711161Y-93611161D01*
X133096000Y-87630000D02*
X131711161Y-89014839D01*
X133096000Y-84919100D02*
X133096000Y-87630000D01*
%TO.N,/BTN1*%
X119566340Y-95690340D02*
X118483866Y-95690340D01*
X120484420Y-96608420D02*
X119566340Y-95690340D01*
X130302000Y-91186000D02*
X124879580Y-96608420D01*
X124879580Y-96608420D02*
X120484420Y-96608420D01*
X130302000Y-86677500D02*
X130302000Y-91186000D01*
X136271000Y-80708500D02*
X130302000Y-86677500D01*
X136588500Y-80708500D02*
X136271000Y-80708500D01*
%TO.N,/BTN2*%
X132302000Y-76168000D02*
X132842000Y-76708000D01*
X132302000Y-73382000D02*
X132302000Y-76168000D01*
%TO.N,/BTN3*%
X130962000Y-76860000D02*
X132080000Y-77978000D01*
X130962000Y-73382000D02*
X130962000Y-76860000D01*
%TO.N,/BTN4*%
X129642000Y-78130000D02*
X129642000Y-73382000D01*
X129540000Y-78232000D02*
X129642000Y-78130000D01*
%TO.N,/BTN1*%
X132302000Y-71342000D02*
X132302000Y-70382000D01*
X134874000Y-73914000D02*
X132302000Y-71342000D01*
X137541000Y-79756000D02*
X142748000Y-79756000D01*
X136588500Y-80708500D02*
X137541000Y-79756000D01*
X137922000Y-79375000D02*
X136588500Y-80708500D01*
%TO.N,/BTN4*%
X132715000Y-81661000D02*
X136652000Y-77724000D01*
X132715000Y-81661000D02*
X133350000Y-82296000D01*
X125476000Y-88900000D02*
X132715000Y-81661000D01*
D48*
%TO.N,+3V3*%
X135231000Y-71858000D02*
X129667000Y-66294000D01*
X138716000Y-71858000D02*
X135231000Y-71858000D01*
X127484000Y-73382000D02*
X128302000Y-73382000D01*
X125984000Y-69977000D02*
X125984000Y-71882000D01*
X125984000Y-71882000D02*
X127484000Y-73382000D01*
X129667000Y-66294000D02*
X125984000Y-69977000D01*
%TO.N,/BATT_LOW_STAT*%
X103063000Y-59243000D02*
X103063000Y-61419500D01*
X104140000Y-58166000D02*
X103063000Y-59243000D01*
X106680000Y-58166000D02*
X104140000Y-58166000D01*
D47*
%TO.N,GND*%
X103732500Y-70966500D02*
X105460800Y-70966500D01*
X103172006Y-70406006D02*
X103732500Y-70966500D01*
X102841800Y-70406006D02*
X103172006Y-70406006D01*
X102841800Y-70406006D02*
X102841800Y-71097400D01*
D49*
X115062000Y-53721000D02*
X115062000Y-51562000D01*
X117602000Y-53721000D02*
X117602000Y-51562000D01*
X117602000Y-51562000D02*
X119126000Y-51562000D01*
X115062000Y-51562000D02*
X117602000Y-51562000D01*
X114300000Y-51562000D02*
X115062000Y-51562000D01*
X118872000Y-53721000D02*
X118872000Y-51816000D01*
X119126000Y-51562000D02*
X130048000Y-51562000D01*
X118872000Y-51816000D02*
X119126000Y-51562000D01*
D47*
%TO.N,/PN532_IRQ*%
X103378000Y-98552000D02*
X103378000Y-96266000D01*
X103378000Y-96266000D02*
X104140000Y-95504000D01*
X130278256Y-98552000D02*
X103378000Y-98552000D01*
X132080000Y-98044000D02*
X130786256Y-98044000D01*
X130786256Y-98044000D02*
X130278256Y-98552000D01*
D46*
%TO.N,/PN532_RSTOUT_N*%
X128270000Y-97282000D02*
X131064000Y-97282000D01*
X127762000Y-97790000D02*
X128270000Y-97282000D01*
D47*
%TO.N,/BTN2*%
X124714000Y-96266000D02*
X120650000Y-96266000D01*
X127127000Y-93853000D02*
X124714000Y-96266000D01*
X120650000Y-96266000D02*
X119727170Y-95343170D01*
X127127000Y-90424000D02*
X127127000Y-93853000D01*
%TO.N,/BTN3*%
X106302000Y-89006256D02*
X106302000Y-88273500D01*
X107134585Y-89838840D02*
X106302000Y-89006256D01*
X114855488Y-94996000D02*
X109698328Y-89838840D01*
X120396000Y-95504000D02*
X119888000Y-94996000D01*
X119888000Y-94996000D02*
X114855488Y-94996000D01*
X123190000Y-95504000D02*
X120396000Y-95504000D01*
X109698328Y-89838840D02*
X107134585Y-89838840D01*
%TO.N,/BTN8*%
X124106320Y-92555680D02*
X124106320Y-88332659D01*
X124106320Y-88332659D02*
X138524979Y-73914000D01*
X115570000Y-93218000D02*
X123444000Y-93218000D01*
X123444000Y-93218000D02*
X124106320Y-92555680D01*
X109388000Y-87036000D02*
X115570000Y-93218000D01*
X108339500Y-87036000D02*
X109388000Y-87036000D01*
%TO.N,/BTN7*%
X115404420Y-93560420D02*
X109280000Y-87436000D01*
X123609580Y-93560420D02*
X115404420Y-93560420D01*
X124448740Y-88474495D02*
X124448740Y-92721260D01*
X109280000Y-87436000D02*
X108339500Y-87436000D01*
X124448740Y-92721260D02*
X123609580Y-93560420D01*
X155067000Y-79883000D02*
X151880740Y-76696740D01*
X136226495Y-76696740D02*
X124448740Y-88474495D01*
X155067000Y-81788000D02*
X155067000Y-79883000D01*
%TO.N,/BTN6*%
X136368330Y-77039160D02*
X145111160Y-77039160D01*
X123751416Y-93902840D02*
X124791160Y-92863096D01*
X155067000Y-86995000D02*
X155067000Y-89916000D01*
X115262584Y-93902840D02*
X123751416Y-93902840D01*
X124791161Y-88616328D02*
X136368330Y-77039160D01*
X109633244Y-88273500D02*
X115262584Y-93902840D01*
X107502000Y-88273500D02*
X109633244Y-88273500D01*
X145111160Y-77039160D02*
X155067000Y-86995000D01*
X124791160Y-92863096D02*
X124791161Y-88616328D01*
%TO.N,/BTN5*%
X154686000Y-98044000D02*
X155067000Y-98044000D01*
X152908000Y-96266000D02*
X154686000Y-98044000D01*
X152908000Y-87630000D02*
X152908000Y-96266000D01*
X136510165Y-77381580D02*
X142659580Y-77381580D01*
X125133580Y-88758164D02*
X136510165Y-77381580D01*
X123940740Y-94245260D02*
X125133580Y-93052420D01*
X125133580Y-93052420D02*
X125133580Y-88758164D01*
X115073260Y-94245260D02*
X123940740Y-94245260D01*
X107442000Y-89154000D02*
X109982000Y-89154000D01*
X109982000Y-89154000D02*
X115073260Y-94245260D01*
X107102000Y-88273500D02*
X107102000Y-88814000D01*
X107102000Y-88814000D02*
X107442000Y-89154000D01*
%TO.N,/BTN4*%
X148717000Y-83947000D02*
X148717000Y-90170000D01*
X142494000Y-77724000D02*
X148717000Y-83947000D01*
X136652000Y-77724000D02*
X142494000Y-77724000D01*
X114931425Y-94587680D02*
X124082575Y-94587680D01*
X109840164Y-89496420D02*
X114931425Y-94587680D01*
X106702000Y-88922000D02*
X107276420Y-89496420D01*
X107276420Y-89496420D02*
X109840164Y-89496420D01*
X124082575Y-94587680D02*
X125476000Y-93194256D01*
X125476000Y-93194256D02*
X125476000Y-88900000D01*
X106702000Y-88273500D02*
X106702000Y-88922000D01*
D46*
%TO.N,/BTN1*%
X114565916Y-95695090D02*
X118483866Y-95695090D01*
X110437826Y-91567000D02*
X114565916Y-95695090D01*
X108839000Y-91567000D02*
X110437826Y-91567000D01*
%TO.N,/BTN2*%
X119634000Y-95343170D02*
X119727170Y-95343170D01*
X116668286Y-95343170D02*
X119634000Y-95343170D01*
X108839000Y-90551000D02*
X109919516Y-90551000D01*
X109919516Y-90551000D02*
X114711686Y-95343170D01*
X114711686Y-95343170D02*
X116668286Y-95343170D01*
D50*
%TO.N,/BATT_LOW_STAT*%
X108304500Y-66648500D02*
X108204000Y-66548000D01*
X109982000Y-66648500D02*
X108304500Y-66648500D01*
D51*
%TO.N,GND1*%
X104013000Y-63294500D02*
X100281500Y-63294500D01*
X100281500Y-63294500D02*
X100076000Y-63500000D01*
X100076000Y-63500000D02*
X100076000Y-61214000D01*
X100076000Y-66802000D02*
X100076000Y-63500000D01*
X105642000Y-64923500D02*
X104013000Y-63294500D01*
X109982000Y-64923500D02*
X105642000Y-64923500D01*
D49*
%TO.N,GND*%
X166116000Y-102108000D02*
X171704000Y-96520000D01*
X171704000Y-96520000D02*
X171704000Y-77470000D01*
D51*
X171704000Y-77470000D02*
X171704000Y-77724000D01*
D49*
X171704000Y-57658000D02*
X171704000Y-77470000D01*
X157353000Y-102108000D02*
X166116000Y-102108000D01*
D50*
X157353000Y-102108000D02*
X161417000Y-98044000D01*
D49*
X145161000Y-102108000D02*
X157353000Y-102108000D01*
X105156000Y-103124000D02*
X144145000Y-103124000D01*
X144145000Y-103124000D02*
X145161000Y-102108000D01*
X100584000Y-98552000D02*
X105156000Y-103124000D01*
X100584000Y-94996000D02*
X100584000Y-98552000D01*
D51*
X104902000Y-72644000D02*
X105460800Y-72339200D01*
X164211000Y-78994000D02*
X161417000Y-81788000D01*
X170434000Y-78994000D02*
X164211000Y-78994000D01*
D49*
X165354000Y-51308000D02*
X171704000Y-57658000D01*
X131064000Y-51308000D02*
X165354000Y-51308000D01*
D51*
X171704000Y-77724000D02*
X170434000Y-78994000D01*
D49*
X130048000Y-51562000D02*
X130810000Y-51562000D01*
D51*
X130810000Y-51562000D02*
X131064000Y-51308000D01*
D49*
X130048000Y-51562000D02*
X130302000Y-51816000D01*
X109728000Y-56642000D02*
X111252000Y-56642000D01*
D51*
X130302000Y-51816000D02*
X130302000Y-52578000D01*
D49*
X113284000Y-52578000D02*
X114300000Y-51562000D01*
X104963000Y-61407000D02*
X109728000Y-56642000D01*
X111252000Y-56642000D02*
X113284000Y-54610000D01*
D51*
X104963000Y-61419500D02*
X104963000Y-61407000D01*
D49*
X113284000Y-54610000D02*
X113284000Y-52578000D01*
D47*
%TO.N,+BATT*%
X110619500Y-57660500D02*
X110619500Y-60576500D01*
X110617000Y-57658000D02*
X110619500Y-57660500D01*
D48*
%TO.N,/BATT_LOW_STAT*%
X106712004Y-58133996D02*
X106712004Y-54356000D01*
X106680000Y-58166000D02*
X106712004Y-58133996D01*
X109669500Y-61976000D02*
X108077000Y-61976000D01*
%TO.N,+3V3*%
X163576000Y-65127500D02*
X160528000Y-65127500D01*
D51*
X99718500Y-77855508D02*
X102076992Y-77855508D01*
D46*
X106172000Y-91339500D02*
X106172000Y-89367228D01*
D52*
X101346000Y-90831500D02*
X101346000Y-89187080D01*
D50*
X90380000Y-96012000D02*
X91142000Y-95250000D01*
D51*
X109474000Y-77724000D02*
X108304500Y-77724000D01*
D46*
X107315000Y-82931000D02*
X106680000Y-82296000D01*
D51*
X105918000Y-91727929D02*
X105918000Y-91593500D01*
D50*
X101464500Y-84236000D02*
X101464500Y-84636000D01*
D46*
X108339500Y-84636000D02*
X107750000Y-84636000D01*
D51*
X103966465Y-93679464D02*
X105918000Y-91727929D01*
D47*
X105902000Y-80687972D02*
X105902000Y-79740000D01*
X105902000Y-81398500D02*
X105902000Y-80687972D01*
D46*
X110690000Y-84636000D02*
X111379000Y-83947000D01*
D47*
X105902000Y-82280000D02*
X105918000Y-82296000D01*
D51*
X102108000Y-91821000D02*
X103966465Y-93679464D01*
D50*
X102302000Y-88273500D02*
X102302000Y-83901163D01*
D48*
X160528000Y-65127500D02*
X153162000Y-57761500D01*
D51*
X102108000Y-91593500D02*
X102108000Y-91821000D01*
X120920911Y-60710245D02*
X109749156Y-71882000D01*
X121539000Y-57531000D02*
X121539000Y-54610000D01*
X108304500Y-77724000D02*
X108204000Y-77824500D01*
D46*
X96874500Y-86106000D02*
X97282000Y-86106000D01*
D51*
X120920911Y-59833911D02*
X120920911Y-58149089D01*
D47*
X102616000Y-82296000D02*
X102362000Y-82550000D01*
D46*
X102867206Y-70055994D02*
X103581200Y-69342000D01*
D47*
X105902000Y-80687972D02*
X108204000Y-78385972D01*
D51*
X109749156Y-71882000D02*
X109474000Y-71882000D01*
D47*
X102403170Y-87588830D02*
X102302000Y-87690000D01*
D51*
X120920911Y-58149089D02*
X124206000Y-54864000D01*
D46*
X108339500Y-84636000D02*
X110690000Y-84636000D01*
D50*
X91142000Y-95250000D02*
X91142000Y-99674500D01*
X91142000Y-99674500D02*
X91797500Y-100330000D01*
X102362000Y-82316261D02*
X102302000Y-82256261D01*
D46*
X101410500Y-84582000D02*
X101464500Y-84636000D01*
D52*
X102259587Y-88273509D02*
X101346000Y-89187071D01*
D47*
X101464500Y-82636000D02*
X101922261Y-82636000D01*
D46*
X105902000Y-89097228D02*
X105902000Y-88273500D01*
D51*
X105460800Y-69241500D02*
X106833500Y-69241500D01*
D52*
X102108000Y-91593500D02*
X101346000Y-90831500D01*
D51*
X120920911Y-58149089D02*
X121539000Y-57531000D01*
D52*
X107315000Y-94615000D02*
X107315000Y-92990500D01*
D46*
X107750000Y-84636000D02*
X107315000Y-84201000D01*
X107315000Y-84201000D02*
X107315000Y-82931000D01*
D47*
X102302000Y-81398500D02*
X102302000Y-78018500D01*
D51*
X124206000Y-54864000D02*
X125476000Y-54864000D01*
D46*
X111379000Y-83947000D02*
X112929500Y-83947000D01*
X105918000Y-91593500D02*
X106172000Y-91339500D01*
D51*
X108204000Y-77824500D02*
X105156000Y-77824500D01*
D50*
X102362000Y-83841163D02*
X102362000Y-82550000D01*
X87222500Y-96012000D02*
X90380000Y-96012000D01*
X102362000Y-82550000D02*
X102362000Y-82316261D01*
D52*
X107315000Y-92990500D02*
X105918000Y-91593500D01*
D46*
X97282000Y-86106000D02*
X98806000Y-84582000D01*
X106680000Y-82296000D02*
X105918000Y-82296000D01*
D47*
X105902000Y-87815739D02*
X105675091Y-87588830D01*
D46*
X98806000Y-84582000D02*
X101410500Y-84582000D01*
D50*
X101967163Y-84236000D02*
X102362000Y-83841163D01*
X101464500Y-84236000D02*
X101967163Y-84236000D01*
D46*
X106172000Y-89367228D02*
X105902000Y-89097228D01*
D48*
X153162000Y-57761500D02*
X153162000Y-52578000D01*
D47*
X105902000Y-81398500D02*
X105902000Y-82280000D01*
D46*
X105918000Y-82296000D02*
X105462261Y-82296000D01*
D47*
X105902000Y-79740000D02*
X105156000Y-78994000D01*
D51*
X120650000Y-53721000D02*
X120142000Y-53721000D01*
D50*
X102302000Y-88273500D02*
X102259580Y-88273500D01*
D51*
X106833500Y-69241500D02*
X109474000Y-71882000D01*
X121539000Y-54610000D02*
X120650000Y-53721000D01*
D47*
X102302000Y-82256261D02*
X102302000Y-81398500D01*
D51*
X109474000Y-71882000D02*
X109474000Y-77724000D01*
X105156000Y-77824500D02*
X102108000Y-77824500D01*
D47*
X105156000Y-78994000D02*
X105156000Y-77824500D01*
D46*
X121031000Y-59944000D02*
X120920911Y-59833911D01*
D51*
X102076992Y-77855508D02*
X102108000Y-77824500D01*
D47*
X105902000Y-88273500D02*
X105902000Y-87815739D01*
X105462261Y-82296000D02*
X102616000Y-82296000D01*
D50*
X102302000Y-83901163D02*
X102362000Y-83841163D01*
D52*
X104140000Y-97790000D02*
X107315000Y-94615000D01*
D47*
X105675091Y-87588830D02*
X102403170Y-87588830D01*
D46*
X102841800Y-70055994D02*
X102867206Y-70055994D01*
D47*
X101922261Y-82636000D02*
X102302000Y-82256261D01*
X102302000Y-78018500D02*
X102108000Y-77824500D01*
D51*
X120920911Y-60710245D02*
X120920911Y-59833911D01*
%TO.N,GND*%
X104748500Y-94488000D02*
X105918000Y-93318500D01*
D46*
X113638500Y-82296000D02*
X115062000Y-82296000D01*
X114654500Y-83947000D02*
X115062000Y-83539500D01*
D47*
X106452000Y-85836000D02*
X106177000Y-86111000D01*
D50*
X145161000Y-102108000D02*
X137922000Y-94869000D01*
D51*
X98806000Y-71882000D02*
X98552000Y-72136000D01*
X95149500Y-86106000D02*
X95149500Y-88138000D01*
D50*
X84735500Y-96774000D02*
X79502000Y-96774000D01*
D47*
X108339500Y-85836000D02*
X106452000Y-85836000D01*
D51*
X100126800Y-70966500D02*
X98806000Y-70966500D01*
D50*
X96520000Y-91440000D02*
X96520000Y-94472718D01*
D51*
X102108000Y-93472000D02*
X100584000Y-94996000D01*
X102108000Y-76099492D02*
X108204000Y-76099492D01*
D50*
X138176000Y-90170000D02*
X137922000Y-90424000D01*
D47*
X118872000Y-53721000D02*
X118872000Y-53848000D01*
D46*
X88646000Y-79602500D02*
X88646000Y-82042000D01*
D50*
X117348000Y-83920500D02*
X117348000Y-85598000D01*
D51*
X95758000Y-75845500D02*
X96927500Y-74676000D01*
D46*
X96927500Y-74676000D02*
X96927500Y-76046500D01*
D51*
X102108000Y-93318500D02*
X103277500Y-94488000D01*
D46*
X115062000Y-83539500D02*
X115062000Y-82296000D01*
D51*
X91186000Y-84836000D02*
X92456000Y-86106000D01*
D46*
X96434580Y-94558138D02*
X96520000Y-94472718D01*
D51*
X105460800Y-72339200D02*
X105460800Y-70966500D01*
D46*
X102108000Y-76099500D02*
X96980500Y-76099500D01*
D51*
X105156000Y-72644000D02*
X104902000Y-72644000D01*
X102108000Y-93318500D02*
X102108000Y-93472000D01*
D50*
X142367000Y-90170000D02*
X138176000Y-90170000D01*
D46*
X88545500Y-79502000D02*
X88646000Y-79602500D01*
D51*
X105156000Y-76099500D02*
X105156000Y-72644000D01*
D46*
X88458000Y-79414500D02*
X88545500Y-79502000D01*
D50*
X96520000Y-94472718D02*
X96520000Y-97028000D01*
D47*
X133477000Y-90424000D02*
X137922000Y-90424000D01*
D51*
X98806000Y-70966500D02*
X98806000Y-71882000D01*
D50*
X98342000Y-91440000D02*
X96520000Y-91440000D01*
D46*
X92559500Y-77978000D02*
X91186000Y-77978000D01*
D50*
X137922000Y-85725000D02*
X137922000Y-90424000D01*
D46*
X88458000Y-75867500D02*
X88458000Y-79414500D01*
X85497500Y-96012000D02*
X86951362Y-94558138D01*
D51*
X98552000Y-72136000D02*
X97282000Y-72136000D01*
D50*
X117348000Y-85598000D02*
X117348000Y-87275500D01*
X85497500Y-96012000D02*
X84735500Y-96774000D01*
D47*
X118872000Y-53848000D02*
X118745000Y-53721000D01*
D46*
X86951362Y-94558138D02*
X96434580Y-94558138D01*
D50*
X137922000Y-94869000D02*
X137922000Y-90424000D01*
X161417000Y-73914000D02*
X161417000Y-98044000D01*
D51*
X103277500Y-94488000D02*
X104748500Y-94488000D01*
X92456000Y-86106000D02*
X95149500Y-86106000D01*
X95758000Y-75946000D02*
X95758000Y-75845500D01*
D46*
X96980500Y-76099500D02*
X96927500Y-76046500D01*
D48*
%TO.N,Net-(R1-Pad1)*%
X82978000Y-68937500D02*
X82192500Y-69723000D01*
X82978000Y-66675000D02*
X82978000Y-68937500D01*
D51*
%TO.N,+5V*%
X78105000Y-69746500D02*
X78105000Y-64897000D01*
X80367500Y-72009000D02*
X78105000Y-69746500D01*
D49*
X86106000Y-77747500D02*
X80367500Y-72009000D01*
X85207000Y-86223000D02*
X85852000Y-86868000D01*
X85709000Y-81423000D02*
X85852000Y-81280000D01*
X86106000Y-81026000D02*
X86106000Y-77747500D01*
D51*
X78613000Y-64389000D02*
X79502000Y-64389000D01*
X78105000Y-64897000D02*
X78613000Y-64389000D01*
D49*
X85852000Y-81280000D02*
X86106000Y-81026000D01*
X83525000Y-81423000D02*
X85709000Y-81423000D01*
X83525000Y-86223000D02*
X85207000Y-86223000D01*
D50*
%TO.N,/USB_D+*%
X83540546Y-84567868D02*
X84406068Y-84567868D01*
X84406068Y-84567868D02*
X84605532Y-84368404D01*
X83557000Y-83572000D02*
X91694000Y-83572000D01*
X84406068Y-83567868D02*
X83540546Y-83567868D01*
X95378900Y-84150200D02*
X94805400Y-83576700D01*
X84605532Y-83767332D02*
X84406068Y-83567868D01*
X84605532Y-84368404D02*
X84605532Y-83767332D01*
X94805400Y-83576700D02*
X91718021Y-83576700D01*
%TO.N,/USB_D-*%
X82460014Y-83873536D02*
X82659478Y-84073000D01*
X82659478Y-84073000D02*
X83525000Y-84073000D01*
X95378900Y-82499200D02*
X94805400Y-83072700D01*
X82460014Y-83272464D02*
X82460014Y-83873536D01*
X82659478Y-83073000D02*
X82460014Y-83272464D01*
X94805400Y-83072700D02*
X91718021Y-83072700D01*
X83555000Y-83070000D02*
X83557000Y-83068000D01*
X83525000Y-83073000D02*
X82659478Y-83073000D01*
X83557000Y-83068000D02*
X91694000Y-83068000D01*
%TO.N,/~{USB_BOOT}*%
X90424000Y-101600000D02*
X88138000Y-99314000D01*
X96623500Y-100330000D02*
X95353500Y-101600000D01*
X88138000Y-99314000D02*
X79502000Y-99314000D01*
X95353500Y-101600000D02*
X90424000Y-101600000D01*
D47*
%TO.N,/QSPI_SS*%
X100457000Y-87884000D02*
X100905000Y-87436000D01*
D50*
X98345000Y-99060000D02*
X98448500Y-99163500D01*
X98448500Y-100330000D02*
X98448500Y-99163500D01*
D47*
X98433683Y-95250000D02*
X100457000Y-93226683D01*
X100905000Y-87436000D02*
X101464500Y-87436000D01*
D50*
X98448500Y-99163500D02*
X98448500Y-95356500D01*
D47*
X98342000Y-95250000D02*
X98433683Y-95250000D01*
D50*
X94996000Y-99060000D02*
X98345000Y-99060000D01*
X98448500Y-95356500D02*
X98342000Y-95250000D01*
X93726000Y-100330000D02*
X94996000Y-99060000D01*
D47*
X100457000Y-93226683D02*
X100457000Y-87884000D01*
D50*
X93622500Y-100330000D02*
X93726000Y-100330000D01*
D51*
%TO.N,/BATT_LOW_STAT*%
X110032000Y-66698500D02*
X109982000Y-66648500D01*
X112522000Y-66698500D02*
X110032000Y-66698500D01*
%TO.N,+BATT*%
X97282000Y-69088000D02*
X98499000Y-69088000D01*
X100126800Y-69241500D02*
X98652500Y-69241500D01*
D47*
X113030000Y-60706000D02*
X113030000Y-64365500D01*
D46*
X97282000Y-70104000D02*
X97282000Y-69088000D01*
D47*
X101448700Y-69241500D02*
X100126800Y-69241500D01*
X102491800Y-70055994D02*
X102263194Y-70055994D01*
D51*
X94742000Y-65050000D02*
X94081000Y-64389000D01*
D47*
X110749000Y-60706000D02*
X113030000Y-60706000D01*
D51*
X94742000Y-65050000D02*
X97282000Y-62510000D01*
D46*
X92559500Y-74826500D02*
X97282000Y-70104000D01*
D51*
X97282000Y-62510000D02*
X97282000Y-58039000D01*
D47*
X110619500Y-60576500D02*
X110749000Y-60706000D01*
D46*
X92559500Y-75946000D02*
X92559500Y-74826500D01*
D47*
X110619500Y-61976000D02*
X110619500Y-60576500D01*
X102263194Y-70055994D02*
X101448700Y-69241500D01*
X113030000Y-64365500D02*
X112522000Y-64873500D01*
D51*
X98652500Y-69241500D02*
X98499000Y-69088000D01*
X94081000Y-64389000D02*
X91059000Y-64389000D01*
D46*
%TO.N,Net-(C19-Pad2)*%
X114704500Y-85725000D02*
X116078000Y-84351500D01*
X116078000Y-84351500D02*
X116078000Y-83465500D01*
D50*
X121412000Y-80844000D02*
X118699500Y-80844000D01*
X118699500Y-80844000D02*
X117348000Y-82195500D01*
D46*
X116078000Y-83465500D02*
X117348000Y-82195500D01*
%TO.N,/XOUT*%
X108339500Y-85036000D02*
X112190500Y-85036000D01*
X112190500Y-85036000D02*
X112879500Y-85725000D01*
D51*
%TO.N,GND1*%
X100076000Y-61214000D02*
X104812000Y-56478000D01*
D49*
X85090000Y-87884000D02*
X84229000Y-87023000D01*
X85090000Y-80264000D02*
X85090000Y-79756000D01*
X85090000Y-91463500D02*
X83312000Y-93241500D01*
D51*
X80367500Y-69723000D02*
X80367500Y-68302500D01*
X94742000Y-68300000D02*
X96546000Y-68300000D01*
X111569500Y-63336000D02*
X111569500Y-61976000D01*
D49*
X84731000Y-80623000D02*
X85090000Y-80264000D01*
D51*
X80367500Y-68302500D02*
X80264000Y-68199000D01*
D49*
X83525000Y-80623000D02*
X84731000Y-80623000D01*
X84229000Y-87023000D02*
X83525000Y-87023000D01*
D51*
X109982000Y-64923500D02*
X111569500Y-63336000D01*
D49*
X85090000Y-87884000D02*
X85090000Y-91463500D01*
D51*
X98044000Y-66802000D02*
X100076000Y-66802000D01*
X96546000Y-68300000D02*
X98044000Y-66802000D01*
X94742000Y-68300000D02*
X90704000Y-68300000D01*
X82042000Y-58039000D02*
X84389000Y-60386000D01*
X80264000Y-68199000D02*
X80264000Y-66140500D01*
X80367500Y-69723000D02*
X81637500Y-70993000D01*
D49*
X83312000Y-93241500D02*
X79502000Y-93241500D01*
D51*
X84389000Y-60386000D02*
X84389000Y-65725000D01*
X104812000Y-56478000D02*
X104812000Y-54356000D01*
X81637500Y-70993000D02*
X83566000Y-70993000D01*
D48*
%TO.N,Net-(R9-Pad2)*%
X81625480Y-89729980D02*
X83312000Y-91416500D01*
X81625480Y-86548247D02*
X81625480Y-89729980D01*
X81625480Y-86548247D02*
X82600727Y-85573000D01*
X82600727Y-85573000D02*
X83525000Y-85573000D01*
D50*
%TO.N,Net-(R10-Pad2)*%
X82518104Y-82573000D02*
X82006494Y-83084610D01*
X83525000Y-82573000D02*
X82518104Y-82573000D01*
X81173960Y-89744540D02*
X79502000Y-91416500D01*
X82006494Y-84363506D02*
X81173960Y-85196040D01*
X81173960Y-85196040D02*
X81173960Y-89744540D01*
X82006494Y-83084610D02*
X82006494Y-84363506D01*
D48*
%TO.N,/I2C0_SCL*%
X164949500Y-71374000D02*
X170434000Y-71374000D01*
D46*
X103378000Y-91948000D02*
X104296080Y-91029920D01*
D48*
X160528000Y-66952500D02*
X164949500Y-71374000D01*
D46*
X104296080Y-91029920D02*
X104296080Y-89610288D01*
X157884500Y-69596000D02*
X160528000Y-66952500D01*
X152400000Y-69596000D02*
X157884500Y-69596000D01*
X104702000Y-89204368D02*
X104702000Y-88273500D01*
X104296080Y-89610288D02*
X104702000Y-89204368D01*
%TO.N,/I2C0_SDA*%
X103378000Y-90932000D02*
X103944160Y-90365840D01*
X164957000Y-65571500D02*
X163576000Y-66952500D01*
X103944160Y-90365840D02*
X103944160Y-89464518D01*
X103944160Y-89464518D02*
X104324339Y-89084339D01*
X164957000Y-57388000D02*
X164957000Y-65571500D01*
X104324339Y-88295839D02*
X104302000Y-88273500D01*
D48*
X165457500Y-68834000D02*
X170434000Y-68834000D01*
X163576000Y-66952500D02*
X165457500Y-68834000D01*
D46*
X104324339Y-89084339D02*
X104324339Y-88295839D01*
X163957000Y-56388000D02*
X164957000Y-57388000D01*
%TO.N,/PN532_RSTOUT_N*%
X102929351Y-89094649D02*
X103318649Y-89094649D01*
X102108000Y-89916000D02*
X102929351Y-89094649D01*
X103318649Y-89094649D02*
X103502000Y-88911298D01*
X103502000Y-88911298D02*
X103502000Y-88273500D01*
%TO.N,/PN532_IRQ*%
X103124000Y-89786988D02*
X103902000Y-89008988D01*
X103902000Y-89008988D02*
X103902000Y-88273500D01*
X103124000Y-89916000D02*
X103124000Y-89786988D01*
%TO.N,/SPI_RX*%
X109176138Y-80699590D02*
X110823126Y-80699590D01*
X110823126Y-80699590D02*
X111001358Y-80521358D01*
X109093000Y-82423000D02*
X109093000Y-80782728D01*
D47*
X133489161Y-58051161D02*
X145148839Y-58051161D01*
D46*
X109093000Y-80782728D02*
X109176138Y-80699590D01*
D47*
X147828000Y-55372000D02*
X150622000Y-52578000D01*
D46*
X108880000Y-82636000D02*
X109093000Y-82423000D01*
D47*
X145148839Y-58051161D02*
X147828000Y-55372000D01*
X133477000Y-58039000D02*
X133489161Y-58051161D01*
X152146000Y-64262000D02*
X147828000Y-59944000D01*
X147828000Y-59944000D02*
X147828000Y-55372000D01*
D46*
X108339500Y-82636000D02*
X108880000Y-82636000D01*
D47*
X110998000Y-80518000D02*
X133477000Y-58039000D01*
%TO.N,/SPI_SCK*%
X110537488Y-80010000D02*
X134162452Y-56385036D01*
X148082000Y-64262000D02*
X146050000Y-62230000D01*
X134162452Y-56385036D02*
X144274964Y-56385036D01*
X146050000Y-62230000D02*
X146050000Y-59690000D01*
X107502000Y-81398500D02*
X108890500Y-80010000D01*
X108890500Y-80010000D02*
X110537488Y-80010000D01*
X144274964Y-56385036D02*
X148082000Y-52578000D01*
%TO.N,/SPI_TX*%
X142077384Y-56042616D02*
X145542000Y-52578000D01*
X107102000Y-80940739D02*
X108375159Y-79667580D01*
X144018000Y-64262000D02*
X142240000Y-62484000D01*
X110395652Y-79667580D02*
X134020616Y-56042616D01*
X108375159Y-79667580D02*
X110395652Y-79667580D01*
X107102000Y-81398500D02*
X107102000Y-80940739D01*
X142240000Y-59834396D02*
X142213905Y-59808301D01*
X142240000Y-62484000D02*
X142240000Y-59834396D01*
X134020616Y-56042616D02*
X142077384Y-56042616D01*
%TO.N,/SPI_CS*%
X133627744Y-57404000D02*
X135382000Y-57404000D01*
X109032336Y-80352420D02*
X110679324Y-80352420D01*
X135890000Y-64770000D02*
X135890000Y-59944000D01*
X108339500Y-82236000D02*
X108339500Y-81045256D01*
X110679324Y-80352420D02*
X133627744Y-57404000D01*
X108339500Y-81045256D02*
X109032336Y-80352420D01*
%TO.N,/DISP_DATA{slash}COMMAND*%
X128016000Y-61078720D02*
X128456360Y-60638360D01*
X128456360Y-60638360D02*
X131572000Y-57522720D01*
X127762000Y-60198000D02*
X128329360Y-60765360D01*
X106302000Y-80772228D02*
X108091488Y-78982740D01*
X110111980Y-78982740D02*
X128016000Y-61078720D01*
X106302000Y-81398500D02*
X106302000Y-80772228D01*
X108091488Y-78982740D02*
X110111980Y-78982740D01*
X131572000Y-57522720D02*
X131572000Y-56134000D01*
X124206000Y-60198000D02*
X127762000Y-60198000D01*
%TO.N,/DISP_RST*%
X106702000Y-81398500D02*
X106702000Y-80856484D01*
X108233323Y-79325160D02*
X110253816Y-79325160D01*
X106702000Y-80856484D02*
X108233323Y-79325160D01*
X135382000Y-54196976D02*
X135382000Y-52578000D01*
X110253816Y-79325160D02*
X135382000Y-54196976D01*
%TO.N,/QSPL_SD1*%
X100315165Y-87541580D02*
X100820745Y-87036000D01*
X100820745Y-87036000D02*
X101464500Y-87036000D01*
X100114580Y-93084847D02*
X100114580Y-87742164D01*
X100114580Y-87742164D02*
X100315165Y-87541580D01*
X99219427Y-93980000D02*
X100114580Y-93084847D01*
X98342000Y-93980000D02*
X99219427Y-93980000D01*
%TO.N,/QSPL_SD2*%
X98342000Y-92710000D02*
X99441000Y-92710000D01*
X99972745Y-87399744D02*
X100736489Y-86636000D01*
X99772160Y-87600328D02*
X99972745Y-87399744D01*
X100736489Y-86636000D02*
X101464500Y-86636000D01*
X99772160Y-92378840D02*
X99772160Y-87600328D01*
X99441000Y-92710000D02*
X99772160Y-92378840D01*
%TO.N,/QSPL_SD0*%
X90043000Y-91440000D02*
X89662000Y-91059000D01*
X98298000Y-90043000D02*
X99429740Y-88911260D01*
X100652233Y-86236000D02*
X101464500Y-86236000D01*
X99429740Y-88911260D02*
X99429740Y-87458493D01*
X90043000Y-90043000D02*
X98298000Y-90043000D01*
X99429740Y-87458493D02*
X100652233Y-86236000D01*
X91142000Y-91440000D02*
X90043000Y-91440000D01*
X89662000Y-90424000D02*
X90043000Y-90043000D01*
X89662000Y-91059000D02*
X89662000Y-90424000D01*
%TO.N,/QSPI_SCLK*%
X89877420Y-89700580D02*
X98156164Y-89700580D01*
X99071872Y-87332106D02*
X100567978Y-85836000D01*
X99071872Y-88784872D02*
X99071872Y-87332106D01*
X100567978Y-85836000D02*
X101464500Y-85836000D01*
X98156164Y-89700580D02*
X99071872Y-88784872D01*
X89319580Y-90258420D02*
X89877420Y-89700580D01*
X91142000Y-92710000D02*
X90043000Y-92710000D01*
X89319580Y-91986580D02*
X89319580Y-90258420D01*
X90043000Y-92710000D02*
X89319580Y-91986580D01*
%TO.N,/QSPL_SD3*%
X90805000Y-93980000D02*
X88977160Y-92152160D01*
X88977160Y-92152160D02*
X88977160Y-90116584D01*
X88977160Y-90116584D02*
X89735585Y-89358160D01*
X98729452Y-88643036D02*
X98729452Y-87190270D01*
X98014328Y-89358160D02*
X98729452Y-88643036D01*
X98729452Y-87190270D02*
X100483722Y-85436000D01*
X91142000Y-93980000D02*
X90805000Y-93980000D01*
X89735585Y-89358160D02*
X98014328Y-89358160D01*
X100483722Y-85436000D02*
X101464500Y-85436000D01*
D50*
%TO.N,/XIN*%
X114400500Y-89000500D02*
X110814920Y-85414920D01*
X118191500Y-89844000D02*
X117348000Y-89000500D01*
X121412000Y-89844000D02*
X118191500Y-89844000D01*
X117348000Y-89000500D02*
X114400500Y-89000500D01*
X110814920Y-85414920D02*
X108360580Y-85414920D01*
X108360580Y-85414920D02*
X108339500Y-85436000D01*
D48*
%TO.N,Net-(D1-Pad1)*%
X85344000Y-69483000D02*
X85678000Y-69149000D01*
X85678000Y-69149000D02*
X85678000Y-66675000D01*
D47*
%TO.N,+1V1*%
X99060000Y-85598000D02*
X96874500Y-87783500D01*
D46*
X108339500Y-84236000D02*
X108374500Y-84201000D01*
X99900500Y-83036000D02*
X97128500Y-80264000D01*
D47*
X96874500Y-87783500D02*
X96874500Y-88138000D01*
D46*
X108374500Y-84201000D02*
X109855000Y-84201000D01*
D47*
X99114000Y-85036000D02*
X99114000Y-85544000D01*
D46*
X109855000Y-84201000D02*
X110363000Y-83693000D01*
D47*
X99114000Y-85036000D02*
X101464500Y-85036000D01*
X99114000Y-85544000D02*
X99060000Y-85598000D01*
D46*
X111760000Y-82296000D02*
X110363000Y-83693000D01*
X101464500Y-83036000D02*
X99900500Y-83036000D01*
X111913500Y-82296000D02*
X111760000Y-82296000D01*
%TO.N,/BTN1*%
X105102000Y-89302058D02*
X105102000Y-88273500D01*
X104721962Y-91525965D02*
X104721962Y-89682096D01*
X104721962Y-89682096D02*
X105102000Y-89302058D01*
%TO.N,/BTN2*%
X105410000Y-89916000D02*
X105502000Y-89824000D01*
X105502000Y-89824000D02*
X105502000Y-88273500D01*
D47*
%TO.N,/BTN3*%
X137795000Y-101346000D02*
X137922000Y-101219000D01*
X132842000Y-101346000D02*
X137795000Y-101346000D01*
D46*
%TO.N,/SWCLK*%
X108339500Y-83836000D02*
X109173070Y-83836000D01*
X109173070Y-83836000D02*
X110617000Y-82392070D01*
X110617000Y-82392070D02*
X110617000Y-82169000D01*
%TO.N,/SWD*%
X108339500Y-83436000D02*
X109075380Y-83436000D01*
X109855000Y-81407000D02*
X111125000Y-81407000D01*
X114046000Y-78486000D02*
X114283089Y-78248911D01*
X109075380Y-83436000D02*
X109781190Y-82730190D01*
X115316000Y-78248911D02*
X115332031Y-78248911D01*
D47*
X117856000Y-57277000D02*
X120142000Y-54991000D01*
D46*
X111125000Y-81407000D02*
X114046000Y-78486000D01*
X117856000Y-75724942D02*
X117856000Y-75184000D01*
D47*
X117856000Y-57658000D02*
X117856000Y-57277000D01*
D46*
X109855000Y-82656380D02*
X109855000Y-81407000D01*
X109781190Y-82730190D02*
X109855000Y-82656380D01*
X114283089Y-78248911D02*
X115316000Y-78248911D01*
X115332031Y-78248911D02*
X117856000Y-75724942D01*
%TO.N,/HALF_BATT_REF*%
X96012000Y-73406000D02*
X97790000Y-73406000D01*
X98652500Y-74676000D02*
X103632000Y-74676000D01*
X94384500Y-77978000D02*
X94384500Y-75946000D01*
X103902000Y-79772000D02*
X103902000Y-81398500D01*
X103632000Y-78740000D02*
X103632000Y-79502000D01*
X103632000Y-79502000D02*
X103902000Y-79772000D01*
X94384500Y-75946000D02*
X94384500Y-75033500D01*
X98652500Y-74268500D02*
X98652500Y-74676000D01*
X94384500Y-75033500D02*
X96012000Y-73406000D01*
X97790000Y-73406000D02*
X98652500Y-74268500D01*
%TO.N,/~{RESET}*%
X113723580Y-78300420D02*
X114427000Y-77597000D01*
X109444920Y-81055080D02*
X109448490Y-81051510D01*
X114427000Y-77597000D02*
X115062000Y-77597000D01*
X110968896Y-81051510D02*
X113719986Y-78300420D01*
X113719986Y-78300420D02*
X113723580Y-78300420D01*
X108339500Y-83036000D02*
X108977690Y-83036000D01*
X109444920Y-82568770D02*
X109444920Y-81055080D01*
X109448490Y-81051510D02*
X110968896Y-81051510D01*
X108977690Y-83036000D02*
X109444920Y-82568770D01*
%TO.N,/ADC_VRef*%
X92456000Y-79248000D02*
X96501008Y-79248000D01*
X92202000Y-79502000D02*
X92456000Y-79248000D01*
X96501008Y-79248000D02*
X97893500Y-77855508D01*
X97893500Y-78665000D02*
X101464500Y-82236000D01*
X90270500Y-75955000D02*
X90358000Y-75867500D01*
X97893500Y-77855508D02*
X97893500Y-78665000D01*
X90270500Y-79502000D02*
X92202000Y-79502000D01*
X90270500Y-79502000D02*
X90270500Y-75955000D01*
D50*
%TO.N,/2USB_D+*%
X98872120Y-83830080D02*
X98552000Y-84150200D01*
X98552000Y-84150200D02*
X97203900Y-84150200D01*
X101464500Y-83830080D02*
X98872120Y-83830080D01*
%TO.N,/2USB_D-*%
X101444250Y-83415750D02*
X98120450Y-83415750D01*
X98120450Y-83415750D02*
X97203900Y-82499200D01*
D48*
%TO.N,Net-(D1-Pad2)*%
X84568000Y-72009000D02*
X82192500Y-72009000D01*
X85344000Y-71233000D02*
X84568000Y-72009000D01*
%TD*%
%TA.AperFunction,Conductor*%
%TO.N,+5V*%
G36*
X80700468Y-61742002D02*
G01*
X80746961Y-61795658D01*
X80757065Y-61865932D01*
X80727571Y-61930512D01*
X80720505Y-61938023D01*
X80670549Y-61986944D01*
X80575572Y-62134319D01*
X80573163Y-62140939D01*
X80573161Y-62140942D01*
X80519973Y-62287075D01*
X80515606Y-62299074D01*
X80514723Y-62306062D01*
X80514723Y-62306063D01*
X80514044Y-62311437D01*
X80493632Y-62473020D01*
X80510741Y-62647511D01*
X80566083Y-62813876D01*
X80656908Y-62963846D01*
X80661797Y-62968909D01*
X80661798Y-62968910D01*
X80702136Y-63010681D01*
X80778701Y-63089966D01*
X80784593Y-63093821D01*
X80784597Y-63093825D01*
X80846632Y-63134419D01*
X80925410Y-63185970D01*
X80932014Y-63188426D01*
X81083140Y-63244629D01*
X81083142Y-63244629D01*
X81089742Y-63247084D01*
X81096725Y-63248016D01*
X81096726Y-63248016D01*
X81256549Y-63269342D01*
X81256553Y-63269342D01*
X81263530Y-63270273D01*
X81270541Y-63269635D01*
X81270545Y-63269635D01*
X81408105Y-63257115D01*
X81438137Y-63254382D01*
X81444839Y-63252204D01*
X81444841Y-63252204D01*
X81598185Y-63202380D01*
X81598188Y-63202379D01*
X81604884Y-63200203D01*
X81755484Y-63110427D01*
X81760578Y-63105576D01*
X81760582Y-63105573D01*
X81853094Y-63017474D01*
X81882452Y-62989517D01*
X81979477Y-62843482D01*
X82041737Y-62679581D01*
X82043632Y-62666098D01*
X82072917Y-62601423D01*
X82132520Y-62562848D01*
X82203516Y-62562621D01*
X82263365Y-62600813D01*
X82286991Y-62648093D01*
X82288741Y-62647511D01*
X82344083Y-62813876D01*
X82434908Y-62963846D01*
X82439797Y-62968909D01*
X82439798Y-62968910D01*
X82480136Y-63010681D01*
X82556701Y-63089966D01*
X82562593Y-63093821D01*
X82562597Y-63093825D01*
X82624632Y-63134419D01*
X82703410Y-63185970D01*
X82710014Y-63188426D01*
X82861140Y-63244629D01*
X82861142Y-63244629D01*
X82867742Y-63247084D01*
X82874725Y-63248016D01*
X82874726Y-63248016D01*
X83034549Y-63269342D01*
X83034553Y-63269342D01*
X83041530Y-63270273D01*
X83048541Y-63269635D01*
X83048545Y-63269635D01*
X83186105Y-63257115D01*
X83216137Y-63254382D01*
X83222839Y-63252204D01*
X83222841Y-63252204D01*
X83376185Y-63202380D01*
X83376188Y-63202379D01*
X83382884Y-63200203D01*
X83533484Y-63110427D01*
X83604107Y-63043173D01*
X83667233Y-63010681D01*
X83737904Y-63017474D01*
X83793683Y-63061397D01*
X83817000Y-63134419D01*
X83817000Y-63816000D01*
X83796998Y-63884121D01*
X83743342Y-63930614D01*
X83691000Y-63942000D01*
X83250115Y-63942000D01*
X83234876Y-63946475D01*
X83233671Y-63947865D01*
X83232000Y-63955548D01*
X83232000Y-64903000D01*
X83211998Y-64971121D01*
X83158342Y-65017614D01*
X83128985Y-65024000D01*
X81358083Y-65024000D01*
X81289962Y-65003998D01*
X81243469Y-64950342D01*
X81233365Y-64880068D01*
X81234882Y-64871588D01*
X81237181Y-64860863D01*
X81246672Y-64768230D01*
X81247000Y-64761815D01*
X81247000Y-64687615D01*
X81242525Y-64672376D01*
X81241135Y-64671171D01*
X81233452Y-64669500D01*
X79299115Y-64669500D01*
X79283876Y-64673975D01*
X79282671Y-64675365D01*
X79281000Y-64683048D01*
X79281000Y-64761766D01*
X79281337Y-64768282D01*
X79291075Y-64862132D01*
X79293078Y-64871407D01*
X79287903Y-64942215D01*
X79245269Y-64998985D01*
X79178711Y-65023693D01*
X79169916Y-65024000D01*
X78866000Y-65024000D01*
X78797879Y-65003998D01*
X78751386Y-64950342D01*
X78740000Y-64898000D01*
X78740000Y-64502885D01*
X81690000Y-64502885D01*
X81694475Y-64518124D01*
X81695865Y-64519329D01*
X81703548Y-64521000D01*
X82705885Y-64521000D01*
X82721124Y-64516525D01*
X82722329Y-64515135D01*
X82724000Y-64507452D01*
X82724000Y-63960116D01*
X82719525Y-63944877D01*
X82718135Y-63943672D01*
X82710452Y-63942001D01*
X82153331Y-63942001D01*
X82146510Y-63942371D01*
X82095648Y-63947895D01*
X82080396Y-63951521D01*
X81959946Y-63996676D01*
X81944351Y-64005214D01*
X81842276Y-64081715D01*
X81829715Y-64094276D01*
X81753214Y-64196351D01*
X81744676Y-64211946D01*
X81699522Y-64332394D01*
X81695895Y-64347649D01*
X81690369Y-64398514D01*
X81690000Y-64405328D01*
X81690000Y-64502885D01*
X78740000Y-64502885D01*
X78740000Y-64143385D01*
X79281000Y-64143385D01*
X79285475Y-64158624D01*
X79286865Y-64159829D01*
X79294548Y-64161500D01*
X79991885Y-64161500D01*
X80007124Y-64157025D01*
X80008329Y-64155635D01*
X80010000Y-64147952D01*
X80010000Y-64143385D01*
X80518000Y-64143385D01*
X80522475Y-64158624D01*
X80523865Y-64159829D01*
X80531548Y-64161500D01*
X81228885Y-64161500D01*
X81244124Y-64157025D01*
X81245329Y-64155635D01*
X81247000Y-64147952D01*
X81247000Y-64069234D01*
X81246663Y-64062718D01*
X81236925Y-63968868D01*
X81234032Y-63955472D01*
X81183512Y-63804047D01*
X81177347Y-63790885D01*
X81093574Y-63655508D01*
X81084540Y-63644110D01*
X80971871Y-63531637D01*
X80960460Y-63522625D01*
X80824937Y-63439088D01*
X80811759Y-63432944D01*
X80660234Y-63382685D01*
X80646868Y-63379819D01*
X80554230Y-63370328D01*
X80547815Y-63370000D01*
X80536115Y-63370000D01*
X80520876Y-63374475D01*
X80519671Y-63375865D01*
X80518000Y-63383548D01*
X80518000Y-64143385D01*
X80010000Y-64143385D01*
X80010000Y-63388115D01*
X80005525Y-63372876D01*
X80004135Y-63371671D01*
X79996452Y-63370000D01*
X79980234Y-63370000D01*
X79973718Y-63370337D01*
X79879868Y-63380075D01*
X79866472Y-63382968D01*
X79715047Y-63433488D01*
X79701885Y-63439653D01*
X79566508Y-63523426D01*
X79555110Y-63532460D01*
X79442637Y-63645129D01*
X79433625Y-63656540D01*
X79350088Y-63792063D01*
X79343944Y-63805241D01*
X79293685Y-63956766D01*
X79290819Y-63970132D01*
X79281328Y-64062770D01*
X79281000Y-64069185D01*
X79281000Y-64143385D01*
X78740000Y-64143385D01*
X78740000Y-63310208D01*
X78760002Y-63242087D01*
X78813658Y-63195594D01*
X78883932Y-63185490D01*
X78909920Y-63192110D01*
X79051140Y-63244629D01*
X79051142Y-63244629D01*
X79057742Y-63247084D01*
X79064725Y-63248016D01*
X79064726Y-63248016D01*
X79224549Y-63269342D01*
X79224553Y-63269342D01*
X79231530Y-63270273D01*
X79238541Y-63269635D01*
X79238545Y-63269635D01*
X79376105Y-63257115D01*
X79406137Y-63254382D01*
X79412839Y-63252204D01*
X79412841Y-63252204D01*
X79566185Y-63202380D01*
X79566188Y-63202379D01*
X79572884Y-63200203D01*
X79723484Y-63110427D01*
X79728578Y-63105576D01*
X79728582Y-63105573D01*
X79821094Y-63017474D01*
X79850452Y-62989517D01*
X79947477Y-62843482D01*
X80009737Y-62679581D01*
X80034138Y-62505959D01*
X80034445Y-62484000D01*
X80014901Y-62309764D01*
X80011179Y-62299074D01*
X79959557Y-62150835D01*
X79959556Y-62150833D01*
X79957242Y-62144188D01*
X79864332Y-61995501D01*
X79806021Y-61936782D01*
X79772215Y-61874354D01*
X79777527Y-61803556D01*
X79820271Y-61746869D01*
X79886877Y-61722290D01*
X79895428Y-61722000D01*
X80632347Y-61722000D01*
X80700468Y-61742002D01*
G37*
%TD.AperFunction*%
%TD*%
%TA.AperFunction,Conductor*%
%TO.N,GND*%
G36*
X99100838Y-70378002D02*
G01*
X99147331Y-70431658D01*
X99157435Y-70501932D01*
X99155918Y-70510412D01*
X99153619Y-70521137D01*
X99144128Y-70613770D01*
X99143800Y-70620185D01*
X99143800Y-70694385D01*
X99148275Y-70709624D01*
X99149665Y-70710829D01*
X99157348Y-70712500D01*
X101091685Y-70712500D01*
X101106924Y-70708025D01*
X101108129Y-70706635D01*
X101109800Y-70698952D01*
X101109800Y-70620234D01*
X101109463Y-70613718D01*
X101099725Y-70519868D01*
X101097722Y-70510593D01*
X101102897Y-70439785D01*
X101145531Y-70383015D01*
X101212089Y-70358307D01*
X101220884Y-70358000D01*
X102047709Y-70358000D01*
X102091480Y-70369237D01*
X102092364Y-70366718D01*
X102095916Y-70367965D01*
X102101341Y-70370237D01*
X102107197Y-70374422D01*
X102152272Y-70387902D01*
X102157867Y-70389720D01*
X102173351Y-70395158D01*
X102230996Y-70436602D01*
X102257083Y-70502632D01*
X102257601Y-70514040D01*
X102257601Y-70526875D01*
X102257971Y-70533696D01*
X102263495Y-70584558D01*
X102267121Y-70599810D01*
X102312276Y-70720260D01*
X102320814Y-70735855D01*
X102397315Y-70837930D01*
X102409876Y-70850491D01*
X102511951Y-70926992D01*
X102527546Y-70935530D01*
X102647994Y-70980684D01*
X102663249Y-70984311D01*
X102714114Y-70989837D01*
X102720928Y-70990206D01*
X102962669Y-70990205D01*
X102969490Y-70989835D01*
X103020352Y-70984311D01*
X103035604Y-70980685D01*
X103156054Y-70935530D01*
X103171649Y-70926992D01*
X103273724Y-70850491D01*
X103286285Y-70837930D01*
X103362786Y-70735855D01*
X103371324Y-70720260D01*
X103416478Y-70599812D01*
X103420105Y-70584557D01*
X103425631Y-70533692D01*
X103426000Y-70526878D01*
X103426000Y-70484000D01*
X103446002Y-70415879D01*
X103499658Y-70369386D01*
X103552000Y-70358000D01*
X104366717Y-70358000D01*
X104434838Y-70378002D01*
X104481331Y-70431658D01*
X104491435Y-70501932D01*
X104489918Y-70510412D01*
X104487619Y-70521137D01*
X104478128Y-70613770D01*
X104477800Y-70620185D01*
X104477800Y-70694385D01*
X104482275Y-70709624D01*
X104483665Y-70710829D01*
X104491348Y-70712500D01*
X106425685Y-70712500D01*
X106440924Y-70708025D01*
X106442129Y-70706635D01*
X106443800Y-70698952D01*
X106443800Y-70620234D01*
X106443463Y-70613718D01*
X106433725Y-70519868D01*
X106431722Y-70510593D01*
X106436897Y-70439785D01*
X106479531Y-70383015D01*
X106546089Y-70358307D01*
X106554884Y-70358000D01*
X106757200Y-70358000D01*
X106825321Y-70378002D01*
X106871814Y-70431658D01*
X106883200Y-70484000D01*
X106883200Y-72568800D01*
X106863198Y-72636921D01*
X106809542Y-72683414D01*
X106757200Y-72694800D01*
X98525600Y-72694800D01*
X98457479Y-72674798D01*
X98410986Y-72621142D01*
X98399600Y-72568800D01*
X98399600Y-71312766D01*
X99143800Y-71312766D01*
X99144137Y-71319282D01*
X99153875Y-71413132D01*
X99156768Y-71426528D01*
X99207288Y-71577953D01*
X99213453Y-71591115D01*
X99297226Y-71726492D01*
X99306260Y-71737890D01*
X99418929Y-71850363D01*
X99430340Y-71859375D01*
X99565863Y-71942912D01*
X99579041Y-71949056D01*
X99730566Y-71999315D01*
X99743932Y-72002181D01*
X99836570Y-72011672D01*
X99842985Y-72012000D01*
X99854685Y-72012000D01*
X99869924Y-72007525D01*
X99871129Y-72006135D01*
X99872800Y-71998452D01*
X99872800Y-71993885D01*
X100380800Y-71993885D01*
X100385275Y-72009124D01*
X100386665Y-72010329D01*
X100394348Y-72012000D01*
X100410566Y-72012000D01*
X100417082Y-72011663D01*
X100510932Y-72001925D01*
X100524328Y-71999032D01*
X100675753Y-71948512D01*
X100688915Y-71942347D01*
X100824292Y-71858574D01*
X100835690Y-71849540D01*
X100948163Y-71736871D01*
X100957175Y-71725460D01*
X101040712Y-71589937D01*
X101046856Y-71576759D01*
X101097115Y-71425234D01*
X101099981Y-71411868D01*
X101109472Y-71319230D01*
X101109800Y-71312815D01*
X101109800Y-71312766D01*
X104477800Y-71312766D01*
X104478137Y-71319282D01*
X104487875Y-71413132D01*
X104490768Y-71426528D01*
X104541288Y-71577953D01*
X104547453Y-71591115D01*
X104631226Y-71726492D01*
X104640260Y-71737890D01*
X104752929Y-71850363D01*
X104764340Y-71859375D01*
X104899863Y-71942912D01*
X104913041Y-71949056D01*
X105064566Y-71999315D01*
X105077932Y-72002181D01*
X105170570Y-72011672D01*
X105176985Y-72012000D01*
X105188685Y-72012000D01*
X105203924Y-72007525D01*
X105205129Y-72006135D01*
X105206800Y-71998452D01*
X105206800Y-71993885D01*
X105714800Y-71993885D01*
X105719275Y-72009124D01*
X105720665Y-72010329D01*
X105728348Y-72012000D01*
X105744566Y-72012000D01*
X105751082Y-72011663D01*
X105844932Y-72001925D01*
X105858328Y-71999032D01*
X106009753Y-71948512D01*
X106022915Y-71942347D01*
X106158292Y-71858574D01*
X106169690Y-71849540D01*
X106282163Y-71736871D01*
X106291175Y-71725460D01*
X106374712Y-71589937D01*
X106380856Y-71576759D01*
X106431115Y-71425234D01*
X106433981Y-71411868D01*
X106443472Y-71319230D01*
X106443800Y-71312815D01*
X106443800Y-71238615D01*
X106439325Y-71223376D01*
X106437935Y-71222171D01*
X106430252Y-71220500D01*
X105732915Y-71220500D01*
X105717676Y-71224975D01*
X105716471Y-71226365D01*
X105714800Y-71234048D01*
X105714800Y-71993885D01*
X105206800Y-71993885D01*
X105206800Y-71238615D01*
X105202325Y-71223376D01*
X105200935Y-71222171D01*
X105193252Y-71220500D01*
X104495915Y-71220500D01*
X104480676Y-71224975D01*
X104479471Y-71226365D01*
X104477800Y-71234048D01*
X104477800Y-71312766D01*
X101109800Y-71312766D01*
X101109800Y-71238615D01*
X101105325Y-71223376D01*
X101103935Y-71222171D01*
X101096252Y-71220500D01*
X100398915Y-71220500D01*
X100383676Y-71224975D01*
X100382471Y-71226365D01*
X100380800Y-71234048D01*
X100380800Y-71993885D01*
X99872800Y-71993885D01*
X99872800Y-71238615D01*
X99868325Y-71223376D01*
X99866935Y-71222171D01*
X99859252Y-71220500D01*
X99161915Y-71220500D01*
X99146676Y-71224975D01*
X99145471Y-71226365D01*
X99143800Y-71234048D01*
X99143800Y-71312766D01*
X98399600Y-71312766D01*
X98399600Y-70484000D01*
X98419602Y-70415879D01*
X98473258Y-70369386D01*
X98525600Y-70358000D01*
X99032717Y-70358000D01*
X99100838Y-70378002D01*
G37*
%TD.AperFunction*%
%TD*%
%TA.AperFunction,Conductor*%
%TO.N,+3V3*%
G36*
X106876121Y-67787202D02*
G01*
X106922614Y-67840858D01*
X106934000Y-67893200D01*
X106934000Y-69978000D01*
X106913998Y-70046121D01*
X106860342Y-70092614D01*
X106808000Y-70104000D01*
X106453033Y-70104000D01*
X106384912Y-70083998D01*
X106338419Y-70030342D01*
X106328315Y-69960068D01*
X106345773Y-69911884D01*
X106374712Y-69864937D01*
X106380856Y-69851759D01*
X106431115Y-69700234D01*
X106433981Y-69686868D01*
X106443472Y-69594230D01*
X106443800Y-69587815D01*
X106443800Y-69513615D01*
X106439325Y-69498376D01*
X106437935Y-69497171D01*
X106430252Y-69495500D01*
X104495915Y-69495500D01*
X104480676Y-69499975D01*
X104479471Y-69501365D01*
X104477800Y-69509048D01*
X104477800Y-69587766D01*
X104478137Y-69594282D01*
X104487875Y-69688132D01*
X104490768Y-69701528D01*
X104541288Y-69852953D01*
X104547454Y-69866117D01*
X104575660Y-69911697D01*
X104594498Y-69980149D01*
X104573337Y-70047919D01*
X104518896Y-70093490D01*
X104468516Y-70104000D01*
X103551999Y-70104000D01*
X103483878Y-70083998D01*
X103437385Y-70030342D01*
X103425999Y-69978000D01*
X103425999Y-69935125D01*
X103425629Y-69928304D01*
X103420105Y-69877442D01*
X103416479Y-69862190D01*
X103371324Y-69741740D01*
X103362786Y-69726145D01*
X103286285Y-69624070D01*
X103273724Y-69611509D01*
X103171649Y-69535008D01*
X103156054Y-69526470D01*
X103035606Y-69481316D01*
X103020351Y-69477689D01*
X102969486Y-69472163D01*
X102962672Y-69471794D01*
X102938053Y-69471794D01*
X102869932Y-69451792D01*
X102823439Y-69398136D01*
X102812053Y-69345794D01*
X102812053Y-68969385D01*
X104477800Y-68969385D01*
X104482275Y-68984624D01*
X104483665Y-68985829D01*
X104491348Y-68987500D01*
X105188685Y-68987500D01*
X105203924Y-68983025D01*
X105205129Y-68981635D01*
X105206800Y-68973952D01*
X105206800Y-68969385D01*
X105714800Y-68969385D01*
X105719275Y-68984624D01*
X105720665Y-68985829D01*
X105728348Y-68987500D01*
X106425685Y-68987500D01*
X106440924Y-68983025D01*
X106442129Y-68981635D01*
X106443800Y-68973952D01*
X106443800Y-68895234D01*
X106443463Y-68888718D01*
X106433725Y-68794868D01*
X106430832Y-68781472D01*
X106380312Y-68630047D01*
X106374147Y-68616885D01*
X106290374Y-68481508D01*
X106281340Y-68470110D01*
X106168671Y-68357637D01*
X106157260Y-68348625D01*
X106021737Y-68265088D01*
X106008559Y-68258944D01*
X105857034Y-68208685D01*
X105843668Y-68205819D01*
X105751030Y-68196328D01*
X105744615Y-68196000D01*
X105732915Y-68196000D01*
X105717676Y-68200475D01*
X105716471Y-68201865D01*
X105714800Y-68209548D01*
X105714800Y-68969385D01*
X105206800Y-68969385D01*
X105206800Y-68214115D01*
X105202325Y-68198876D01*
X105200935Y-68197671D01*
X105193252Y-68196000D01*
X105177034Y-68196000D01*
X105170518Y-68196337D01*
X105076668Y-68206075D01*
X105063272Y-68208968D01*
X104911847Y-68259488D01*
X104898685Y-68265653D01*
X104763308Y-68349426D01*
X104751910Y-68358460D01*
X104639437Y-68471129D01*
X104630425Y-68482540D01*
X104546888Y-68618063D01*
X104540744Y-68631241D01*
X104490485Y-68782766D01*
X104487619Y-68796132D01*
X104478128Y-68888770D01*
X104477800Y-68895185D01*
X104477800Y-68969385D01*
X102812053Y-68969385D01*
X102812053Y-67893200D01*
X102832055Y-67825079D01*
X102885711Y-67778586D01*
X102938053Y-67767200D01*
X106808000Y-67767200D01*
X106876121Y-67787202D01*
G37*
%TD.AperFunction*%
%TD*%
%TA.AperFunction,Conductor*%
%TO.N,GND1*%
G36*
X80485365Y-67934813D02*
G01*
X80508991Y-67982093D01*
X80510741Y-67981511D01*
X80566083Y-68147876D01*
X80569730Y-68153898D01*
X80569731Y-68153900D01*
X80642566Y-68274164D01*
X80656908Y-68297846D01*
X80661798Y-68302909D01*
X80661802Y-68302915D01*
X80723180Y-68366473D01*
X80756113Y-68429369D01*
X80749813Y-68500086D01*
X80706282Y-68556170D01*
X80632544Y-68580000D01*
X80150141Y-68580000D01*
X80082020Y-68559998D01*
X80035527Y-68506342D01*
X80025423Y-68436068D01*
X80054917Y-68371488D01*
X80063249Y-68362754D01*
X80104452Y-68323517D01*
X80201477Y-68177482D01*
X80263737Y-68013581D01*
X80265632Y-68000098D01*
X80294917Y-67935423D01*
X80354520Y-67896848D01*
X80425516Y-67896621D01*
X80485365Y-67934813D01*
G37*
%TD.AperFunction*%
%TA.AperFunction,Conductor*%
G36*
X88620691Y-66818063D02*
G01*
X88700129Y-66897363D01*
X88711540Y-66906375D01*
X88847063Y-66989912D01*
X88860241Y-66996056D01*
X89011766Y-67046315D01*
X89025132Y-67049181D01*
X89117770Y-67058672D01*
X89124185Y-67059000D01*
X89197410Y-67059000D01*
X89265531Y-67079002D01*
X89312024Y-67132658D01*
X89322128Y-67202932D01*
X89292634Y-67267512D01*
X89238015Y-67304278D01*
X89073148Y-67360403D01*
X89012503Y-67397712D01*
X88929823Y-67448577D01*
X88929820Y-67448579D01*
X88923816Y-67452273D01*
X88918781Y-67457204D01*
X88918778Y-67457206D01*
X88807666Y-67566016D01*
X88798549Y-67574944D01*
X88703572Y-67722319D01*
X88701163Y-67728939D01*
X88701161Y-67728942D01*
X88697312Y-67739518D01*
X88643606Y-67887074D01*
X88642723Y-67894062D01*
X88642723Y-67894063D01*
X88641372Y-67904761D01*
X88621632Y-68061020D01*
X88638741Y-68235511D01*
X88694083Y-68401876D01*
X88694927Y-68403270D01*
X88705027Y-68471381D01*
X88675820Y-68536091D01*
X88616264Y-68574738D01*
X88580232Y-68580000D01*
X86994000Y-68580000D01*
X86925879Y-68559998D01*
X86879386Y-68506342D01*
X86868000Y-68454000D01*
X86868000Y-67449864D01*
X86888002Y-67381743D01*
X86941658Y-67335250D01*
X87011932Y-67325146D01*
X87076512Y-67354640D01*
X87084636Y-67362336D01*
X87116036Y-67394851D01*
X87128701Y-67407966D01*
X87134593Y-67411821D01*
X87134597Y-67411825D01*
X87214473Y-67464094D01*
X87275410Y-67503970D01*
X87282014Y-67506426D01*
X87433140Y-67562629D01*
X87433142Y-67562629D01*
X87439742Y-67565084D01*
X87446725Y-67566016D01*
X87446726Y-67566016D01*
X87606549Y-67587342D01*
X87606553Y-67587342D01*
X87613530Y-67588273D01*
X87620541Y-67587635D01*
X87620545Y-67587635D01*
X87759986Y-67574944D01*
X87788137Y-67572382D01*
X87794839Y-67570204D01*
X87794841Y-67570204D01*
X87948185Y-67520380D01*
X87948188Y-67520379D01*
X87954884Y-67518203D01*
X88105484Y-67428427D01*
X88110578Y-67423576D01*
X88110582Y-67423573D01*
X88208914Y-67329932D01*
X88232452Y-67307517D01*
X88305033Y-67198273D01*
X88325576Y-67167354D01*
X88325577Y-67167352D01*
X88329477Y-67161482D01*
X88391737Y-66997581D01*
X88405822Y-66897363D01*
X88406899Y-66889700D01*
X88436187Y-66825026D01*
X88495792Y-66786453D01*
X88566788Y-66786228D01*
X88620691Y-66818063D01*
G37*
%TD.AperFunction*%
%TA.AperFunction,Conductor*%
G36*
X91127936Y-65425104D02*
G01*
X91174522Y-65478678D01*
X91186000Y-65531220D01*
X91186000Y-68454000D01*
X91165998Y-68522121D01*
X91112342Y-68568614D01*
X91060000Y-68580000D01*
X90233707Y-68580000D01*
X90165586Y-68559998D01*
X90119093Y-68506342D01*
X90108989Y-68436068D01*
X90115917Y-68409263D01*
X90169737Y-68267581D01*
X90185714Y-68153900D01*
X90193587Y-68097883D01*
X90193588Y-68097875D01*
X90194138Y-68093959D01*
X90194445Y-68072000D01*
X90174901Y-67897764D01*
X90171179Y-67887074D01*
X90119557Y-67738835D01*
X90119556Y-67738833D01*
X90117242Y-67732188D01*
X90107372Y-67716393D01*
X90028064Y-67589473D01*
X90028063Y-67589471D01*
X90024332Y-67583501D01*
X90015835Y-67574944D01*
X89905754Y-67464094D01*
X89900789Y-67459094D01*
X89894846Y-67455322D01*
X89894843Y-67455320D01*
X89776561Y-67380256D01*
X89752755Y-67365148D01*
X89587585Y-67306334D01*
X89587462Y-67306319D01*
X89528091Y-67272639D01*
X89495081Y-67209784D01*
X89501293Y-67139060D01*
X89544755Y-67082921D01*
X89618619Y-67059000D01*
X89691766Y-67059000D01*
X89698282Y-67058663D01*
X89792132Y-67048925D01*
X89805528Y-67046032D01*
X89956953Y-66995512D01*
X89970115Y-66989347D01*
X90105492Y-66905574D01*
X90116890Y-66896540D01*
X90229363Y-66783871D01*
X90238375Y-66772460D01*
X90321912Y-66636937D01*
X90328056Y-66623759D01*
X90378315Y-66472234D01*
X90381181Y-66458868D01*
X90390672Y-66366230D01*
X90391000Y-66359815D01*
X90391000Y-66285615D01*
X90386525Y-66270376D01*
X90385135Y-66269171D01*
X90377452Y-66267500D01*
X88443115Y-66267500D01*
X88427877Y-66271974D01*
X88413001Y-66289142D01*
X88353275Y-66327526D01*
X88282279Y-66327526D01*
X88228372Y-66295416D01*
X88122789Y-66189094D01*
X88116846Y-66185322D01*
X88116843Y-66185320D01*
X88035270Y-66133552D01*
X87974755Y-66095148D01*
X87947570Y-66085468D01*
X87816220Y-66038696D01*
X87816215Y-66038695D01*
X87809585Y-66036334D01*
X87802597Y-66035501D01*
X87802594Y-66035500D01*
X87682307Y-66021157D01*
X87635490Y-66015574D01*
X87628487Y-66016310D01*
X87628486Y-66016310D01*
X87468122Y-66033165D01*
X87468120Y-66033166D01*
X87461122Y-66033901D01*
X87295148Y-66090403D01*
X87158021Y-66174765D01*
X87089522Y-66193423D01*
X87021807Y-66172084D01*
X86976379Y-66117525D01*
X86966000Y-66067447D01*
X86966000Y-65997115D01*
X86961525Y-65981876D01*
X86960135Y-65980671D01*
X86952452Y-65979000D01*
X86575273Y-65979000D01*
X86557084Y-65977680D01*
X86498684Y-65969160D01*
X86498680Y-65969160D01*
X86494158Y-65968500D01*
X84861842Y-65968500D01*
X84857294Y-65969170D01*
X84857287Y-65969170D01*
X84807519Y-65976496D01*
X84799634Y-65977657D01*
X84781285Y-65979000D01*
X84408116Y-65979000D01*
X84392876Y-65983475D01*
X84381579Y-65996512D01*
X84321853Y-66034896D01*
X84286355Y-66040000D01*
X84021731Y-66040000D01*
X83966398Y-66027200D01*
X83944320Y-66016408D01*
X83868497Y-65979345D01*
X83835716Y-65974563D01*
X83798684Y-65969160D01*
X83798680Y-65969160D01*
X83794158Y-65968500D01*
X82161842Y-65968500D01*
X82157294Y-65969170D01*
X82157287Y-65969170D01*
X82096541Y-65978112D01*
X82096539Y-65978113D01*
X82086856Y-65979538D01*
X82078068Y-65983853D01*
X82078067Y-65983853D01*
X81989978Y-66027103D01*
X81934447Y-66040000D01*
X81788000Y-66040000D01*
X81788000Y-66990661D01*
X81767998Y-67058782D01*
X81714342Y-67105275D01*
X81644068Y-67115379D01*
X81619735Y-67109361D01*
X81545484Y-67082921D01*
X81466220Y-67054696D01*
X81466215Y-67054695D01*
X81459585Y-67052334D01*
X81452597Y-67051501D01*
X81452594Y-67051500D01*
X81323932Y-67036158D01*
X81285490Y-67031574D01*
X81278487Y-67032310D01*
X81278485Y-67032310D01*
X81249001Y-67035409D01*
X81179163Y-67022637D01*
X81127316Y-66974135D01*
X81109922Y-66905302D01*
X81128571Y-66843983D01*
X81177912Y-66763937D01*
X81184056Y-66750759D01*
X81234315Y-66599234D01*
X81237181Y-66585868D01*
X81246672Y-66493230D01*
X81247000Y-66486815D01*
X81247000Y-66412615D01*
X81242525Y-66397376D01*
X81241135Y-66396171D01*
X81233452Y-66394500D01*
X80536115Y-66394500D01*
X80520876Y-66398975D01*
X80519671Y-66400365D01*
X80518000Y-66408048D01*
X80518000Y-67167885D01*
X80522475Y-67183124D01*
X80523865Y-67184329D01*
X80544783Y-67188879D01*
X80544269Y-67191242D01*
X80594536Y-67206002D01*
X80641029Y-67259658D01*
X80651133Y-67329932D01*
X80632328Y-67380252D01*
X80575572Y-67468319D01*
X80573163Y-67474939D01*
X80573161Y-67474942D01*
X80534608Y-67580866D01*
X80515606Y-67633074D01*
X80514723Y-67640062D01*
X80513423Y-67645437D01*
X80477964Y-67706945D01*
X80414881Y-67739518D01*
X80344202Y-67732814D01*
X80288366Y-67688963D01*
X80269167Y-67646131D01*
X80268901Y-67643764D01*
X80223921Y-67514597D01*
X80213557Y-67484835D01*
X80213556Y-67484833D01*
X80211242Y-67478188D01*
X80198131Y-67457206D01*
X80122064Y-67335473D01*
X80122063Y-67335471D01*
X80118332Y-67329501D01*
X80046593Y-67257260D01*
X80012787Y-67194832D01*
X80010000Y-67168478D01*
X80010000Y-66412615D01*
X80005525Y-66397376D01*
X80004135Y-66396171D01*
X79996452Y-66394500D01*
X79299115Y-66394500D01*
X79283876Y-66398975D01*
X79282671Y-66400365D01*
X79281000Y-66408048D01*
X79281000Y-66486766D01*
X79281337Y-66493282D01*
X79291075Y-66587132D01*
X79293968Y-66600528D01*
X79344488Y-66751953D01*
X79350653Y-66765115D01*
X79410560Y-66861925D01*
X79429397Y-66930377D01*
X79408235Y-66998147D01*
X79353794Y-67043717D01*
X79335520Y-67049649D01*
X79333122Y-67049901D01*
X79167148Y-67106403D01*
X79124471Y-67132658D01*
X79023823Y-67194577D01*
X79023820Y-67194579D01*
X79017816Y-67198273D01*
X79012781Y-67203204D01*
X79012778Y-67203206D01*
X78954158Y-67260612D01*
X78891493Y-67293983D01*
X78820734Y-67288177D01*
X78764347Y-67245038D01*
X78740234Y-67178262D01*
X78740000Y-67170589D01*
X78740000Y-65658000D01*
X78760002Y-65589879D01*
X78813658Y-65543386D01*
X78866000Y-65532000D01*
X79169917Y-65532000D01*
X79238038Y-65552002D01*
X79284531Y-65605658D01*
X79294635Y-65675932D01*
X79293118Y-65684412D01*
X79290819Y-65695137D01*
X79281328Y-65787770D01*
X79281000Y-65794185D01*
X79281000Y-65868385D01*
X79285475Y-65883624D01*
X79286865Y-65884829D01*
X79294548Y-65886500D01*
X81228885Y-65886500D01*
X81244124Y-65882025D01*
X81245329Y-65880635D01*
X81247000Y-65872952D01*
X81247000Y-65794234D01*
X81246663Y-65787718D01*
X81236925Y-65693870D01*
X81233340Y-65677268D01*
X81238514Y-65606460D01*
X81281148Y-65549690D01*
X81353698Y-65524705D01*
X81798953Y-65514793D01*
X83293153Y-65481531D01*
X83295957Y-65481500D01*
X83794158Y-65481500D01*
X83798706Y-65480830D01*
X83798713Y-65480830D01*
X83869144Y-65470462D01*
X83869262Y-65471266D01*
X83887418Y-65468302D01*
X84333388Y-65458374D01*
X84363567Y-65466510D01*
X84364441Y-65462493D01*
X84403548Y-65471000D01*
X84780727Y-65471000D01*
X84798916Y-65472320D01*
X84857316Y-65480840D01*
X84857320Y-65480840D01*
X84861842Y-65481500D01*
X86494158Y-65481500D01*
X86498706Y-65480830D01*
X86498713Y-65480830D01*
X86548481Y-65473504D01*
X86556366Y-65472343D01*
X86574715Y-65471000D01*
X86947884Y-65471000D01*
X86963123Y-65466525D01*
X86972545Y-65455652D01*
X87032270Y-65417267D01*
X87067551Y-65412163D01*
X87113727Y-65412083D01*
X88312629Y-65409997D01*
X88380782Y-65429881D01*
X88427368Y-65483455D01*
X88437595Y-65553712D01*
X88436046Y-65562412D01*
X88434819Y-65568135D01*
X88425328Y-65660770D01*
X88425000Y-65667185D01*
X88425000Y-65741385D01*
X88429475Y-65756624D01*
X88430865Y-65757829D01*
X88438548Y-65759500D01*
X90372885Y-65759500D01*
X90388124Y-65755025D01*
X90389329Y-65753635D01*
X90391000Y-65745952D01*
X90391000Y-65667234D01*
X90390663Y-65660718D01*
X90380925Y-65566867D01*
X90379180Y-65558790D01*
X90384350Y-65487982D01*
X90426981Y-65431210D01*
X90493538Y-65406498D01*
X90502121Y-65406190D01*
X91059781Y-65405220D01*
X91127936Y-65425104D01*
G37*
%TD.AperFunction*%
%TD*%
%TA.AperFunction,Conductor*%
%TO.N,+BATT*%
G36*
X102491155Y-67787202D02*
G01*
X102537648Y-67840858D01*
X102549034Y-67893200D01*
X102549034Y-69345795D01*
X102529032Y-69413916D01*
X102475376Y-69460409D01*
X102423034Y-69471795D01*
X102370931Y-69471795D01*
X102364110Y-69472165D01*
X102313248Y-69477689D01*
X102297996Y-69481315D01*
X102177546Y-69526470D01*
X102161951Y-69535008D01*
X102059876Y-69611509D01*
X102047315Y-69624070D01*
X101970814Y-69726145D01*
X101962276Y-69741740D01*
X101917122Y-69862188D01*
X101913495Y-69877443D01*
X101907969Y-69928308D01*
X101907600Y-69935122D01*
X101907600Y-69978000D01*
X101887598Y-70046121D01*
X101833942Y-70092614D01*
X101781600Y-70104000D01*
X101119033Y-70104000D01*
X101050912Y-70083998D01*
X101004419Y-70030342D01*
X100994315Y-69960068D01*
X101011773Y-69911884D01*
X101040712Y-69864937D01*
X101046856Y-69851759D01*
X101097115Y-69700234D01*
X101099981Y-69686868D01*
X101109472Y-69594230D01*
X101109800Y-69587815D01*
X101109800Y-69513615D01*
X101105325Y-69498376D01*
X101103935Y-69497171D01*
X101096252Y-69495500D01*
X99161915Y-69495500D01*
X99146676Y-69499975D01*
X99145471Y-69501365D01*
X99143800Y-69509048D01*
X99143800Y-69587766D01*
X99144137Y-69594282D01*
X99153875Y-69688132D01*
X99156768Y-69701528D01*
X99207288Y-69852953D01*
X99213454Y-69866117D01*
X99241660Y-69911697D01*
X99260498Y-69980149D01*
X99239337Y-70047919D01*
X99184896Y-70093490D01*
X99134516Y-70104000D01*
X98525600Y-70104000D01*
X98457479Y-70083998D01*
X98410986Y-70030342D01*
X98399600Y-69978000D01*
X98399600Y-68969385D01*
X99143800Y-68969385D01*
X99148275Y-68984624D01*
X99149665Y-68985829D01*
X99157348Y-68987500D01*
X99854685Y-68987500D01*
X99869924Y-68983025D01*
X99871129Y-68981635D01*
X99872800Y-68973952D01*
X99872800Y-68969385D01*
X100380800Y-68969385D01*
X100385275Y-68984624D01*
X100386665Y-68985829D01*
X100394348Y-68987500D01*
X101091685Y-68987500D01*
X101106924Y-68983025D01*
X101108129Y-68981635D01*
X101109800Y-68973952D01*
X101109800Y-68895234D01*
X101109463Y-68888718D01*
X101099725Y-68794868D01*
X101096832Y-68781472D01*
X101046312Y-68630047D01*
X101040147Y-68616885D01*
X100956374Y-68481508D01*
X100947340Y-68470110D01*
X100834671Y-68357637D01*
X100823260Y-68348625D01*
X100687737Y-68265088D01*
X100674559Y-68258944D01*
X100523034Y-68208685D01*
X100509668Y-68205819D01*
X100417030Y-68196328D01*
X100410615Y-68196000D01*
X100398915Y-68196000D01*
X100383676Y-68200475D01*
X100382471Y-68201865D01*
X100380800Y-68209548D01*
X100380800Y-68969385D01*
X99872800Y-68969385D01*
X99872800Y-68214115D01*
X99868325Y-68198876D01*
X99866935Y-68197671D01*
X99859252Y-68196000D01*
X99843034Y-68196000D01*
X99836518Y-68196337D01*
X99742668Y-68206075D01*
X99729272Y-68208968D01*
X99577847Y-68259488D01*
X99564685Y-68265653D01*
X99429308Y-68349426D01*
X99417910Y-68358460D01*
X99305437Y-68471129D01*
X99296425Y-68482540D01*
X99212888Y-68618063D01*
X99206744Y-68631241D01*
X99156485Y-68782766D01*
X99153619Y-68796132D01*
X99144128Y-68888770D01*
X99143800Y-68895185D01*
X99143800Y-68969385D01*
X98399600Y-68969385D01*
X98399600Y-67893200D01*
X98419602Y-67825079D01*
X98473258Y-67778586D01*
X98525600Y-67767200D01*
X102423034Y-67767200D01*
X102491155Y-67787202D01*
G37*
%TD.AperFunction*%
%TD*%
%TA.AperFunction,Conductor*%
%TO.N,+BATT*%
G36*
X87304468Y-61742002D02*
G01*
X87350961Y-61795658D01*
X87361065Y-61865932D01*
X87331571Y-61930512D01*
X87324505Y-61938023D01*
X87274549Y-61986944D01*
X87179572Y-62134319D01*
X87177163Y-62140939D01*
X87177161Y-62140942D01*
X87122015Y-62292455D01*
X87119606Y-62299074D01*
X87118723Y-62306062D01*
X87118723Y-62306063D01*
X87117372Y-62316761D01*
X87097632Y-62473020D01*
X87114741Y-62647511D01*
X87170083Y-62813876D01*
X87173730Y-62819898D01*
X87173731Y-62819900D01*
X87226776Y-62907487D01*
X87260908Y-62963846D01*
X87265797Y-62968909D01*
X87265798Y-62968910D01*
X87303377Y-63007824D01*
X87382701Y-63089966D01*
X87388593Y-63093821D01*
X87388597Y-63093825D01*
X87446266Y-63131562D01*
X87529410Y-63185970D01*
X87536014Y-63188426D01*
X87687140Y-63244629D01*
X87687142Y-63244629D01*
X87693742Y-63247084D01*
X87700725Y-63248016D01*
X87700726Y-63248016D01*
X87860549Y-63269342D01*
X87860553Y-63269342D01*
X87867530Y-63270273D01*
X87874541Y-63269635D01*
X87874545Y-63269635D01*
X88024710Y-63255968D01*
X88042137Y-63254382D01*
X88048839Y-63252204D01*
X88048841Y-63252204D01*
X88202185Y-63202380D01*
X88202188Y-63202379D01*
X88208884Y-63200203D01*
X88359484Y-63110427D01*
X88364578Y-63105576D01*
X88364582Y-63105573D01*
X88460094Y-63014617D01*
X88486452Y-62989517D01*
X88583477Y-62843482D01*
X88645737Y-62679581D01*
X88670138Y-62505959D01*
X88670445Y-62484000D01*
X88650901Y-62309764D01*
X88647179Y-62299074D01*
X88595557Y-62150835D01*
X88595556Y-62150833D01*
X88593242Y-62144188D01*
X88572124Y-62110392D01*
X88504064Y-62001473D01*
X88504063Y-62001471D01*
X88500332Y-61995501D01*
X88442021Y-61936782D01*
X88408215Y-61874354D01*
X88413527Y-61803556D01*
X88456271Y-61746869D01*
X88522877Y-61722290D01*
X88531428Y-61722000D01*
X89776347Y-61722000D01*
X89844468Y-61742002D01*
X89890961Y-61795658D01*
X89901065Y-61865932D01*
X89871571Y-61930512D01*
X89864505Y-61938023D01*
X89814549Y-61986944D01*
X89719572Y-62134319D01*
X89717163Y-62140939D01*
X89717161Y-62140942D01*
X89662015Y-62292455D01*
X89659606Y-62299074D01*
X89658723Y-62306062D01*
X89658723Y-62306063D01*
X89657372Y-62316761D01*
X89637632Y-62473020D01*
X89654741Y-62647511D01*
X89710083Y-62813876D01*
X89713730Y-62819898D01*
X89713731Y-62819900D01*
X89766776Y-62907487D01*
X89800908Y-62963846D01*
X89805797Y-62968909D01*
X89805798Y-62968910D01*
X89872209Y-63037680D01*
X89905141Y-63100576D01*
X89898841Y-63171293D01*
X89855309Y-63227377D01*
X89788366Y-63251024D01*
X89768729Y-63250551D01*
X89698230Y-63243328D01*
X89691815Y-63243000D01*
X89680115Y-63243000D01*
X89664876Y-63247475D01*
X89663671Y-63248865D01*
X89662000Y-63256548D01*
X89662000Y-64016385D01*
X89666475Y-64031624D01*
X89667865Y-64032829D01*
X89675548Y-64034500D01*
X90372885Y-64034500D01*
X90388124Y-64030025D01*
X90389329Y-64028635D01*
X90391000Y-64020952D01*
X90391000Y-63942234D01*
X90390663Y-63935718D01*
X90380925Y-63841868D01*
X90378032Y-63828472D01*
X90327512Y-63677047D01*
X90321347Y-63663885D01*
X90237574Y-63528508D01*
X90228540Y-63517110D01*
X90179336Y-63467992D01*
X90145257Y-63405710D01*
X90150260Y-63334890D01*
X90192757Y-63278017D01*
X90259255Y-63253148D01*
X90285019Y-63253926D01*
X90400549Y-63269342D01*
X90400553Y-63269342D01*
X90407530Y-63270273D01*
X90414541Y-63269635D01*
X90414545Y-63269635D01*
X90564710Y-63255968D01*
X90582137Y-63254382D01*
X90588839Y-63252204D01*
X90588841Y-63252204D01*
X90742185Y-63202380D01*
X90742188Y-63202379D01*
X90748884Y-63200203D01*
X90899484Y-63110427D01*
X90904578Y-63105576D01*
X90904582Y-63105573D01*
X90973108Y-63040316D01*
X91036233Y-63007824D01*
X91106904Y-63014617D01*
X91162683Y-63058540D01*
X91186000Y-63131562D01*
X91186000Y-64898000D01*
X91165998Y-64966121D01*
X91112342Y-65012614D01*
X91060000Y-65024000D01*
X90461058Y-65024000D01*
X90392937Y-65003998D01*
X90346444Y-64950342D01*
X90336340Y-64880068D01*
X90341465Y-64858333D01*
X90378315Y-64747234D01*
X90381181Y-64733868D01*
X90390672Y-64641230D01*
X90391000Y-64634815D01*
X90391000Y-64560615D01*
X90386525Y-64545376D01*
X90385135Y-64544171D01*
X90377452Y-64542500D01*
X88443115Y-64542500D01*
X88427876Y-64546975D01*
X88426671Y-64548365D01*
X88425000Y-64556048D01*
X88425000Y-64634766D01*
X88425337Y-64641282D01*
X88435075Y-64735132D01*
X88437968Y-64748528D01*
X88474532Y-64858124D01*
X88477116Y-64929074D01*
X88440932Y-64990158D01*
X88377468Y-65021982D01*
X88355008Y-65024000D01*
X86531860Y-65024000D01*
X86498684Y-65019160D01*
X86498680Y-65019160D01*
X86494158Y-65018500D01*
X85550000Y-65018500D01*
X85481879Y-64998498D01*
X85435386Y-64944842D01*
X85424000Y-64892500D01*
X85424000Y-64502885D01*
X85932000Y-64502885D01*
X85936475Y-64518124D01*
X85937865Y-64519329D01*
X85945548Y-64521000D01*
X86947884Y-64521000D01*
X86963123Y-64516525D01*
X86964328Y-64515135D01*
X86965999Y-64507452D01*
X86965999Y-64405331D01*
X86965629Y-64398510D01*
X86960105Y-64347648D01*
X86956479Y-64332396D01*
X86911324Y-64211946D01*
X86902786Y-64196351D01*
X86826285Y-64094276D01*
X86813724Y-64081715D01*
X86726554Y-64016385D01*
X88425000Y-64016385D01*
X88429475Y-64031624D01*
X88430865Y-64032829D01*
X88438548Y-64034500D01*
X89135885Y-64034500D01*
X89151124Y-64030025D01*
X89152329Y-64028635D01*
X89154000Y-64020952D01*
X89154000Y-63261115D01*
X89149525Y-63245876D01*
X89148135Y-63244671D01*
X89140452Y-63243000D01*
X89124234Y-63243000D01*
X89117718Y-63243337D01*
X89023868Y-63253075D01*
X89010472Y-63255968D01*
X88859047Y-63306488D01*
X88845885Y-63312653D01*
X88710508Y-63396426D01*
X88699110Y-63405460D01*
X88586637Y-63518129D01*
X88577625Y-63529540D01*
X88494088Y-63665063D01*
X88487944Y-63678241D01*
X88437685Y-63829766D01*
X88434819Y-63843132D01*
X88425328Y-63935770D01*
X88425000Y-63942185D01*
X88425000Y-64016385D01*
X86726554Y-64016385D01*
X86711649Y-64005214D01*
X86696054Y-63996676D01*
X86575606Y-63951522D01*
X86560351Y-63947895D01*
X86509486Y-63942369D01*
X86502672Y-63942000D01*
X85950115Y-63942000D01*
X85934876Y-63946475D01*
X85933671Y-63947865D01*
X85932000Y-63955548D01*
X85932000Y-64502885D01*
X85424000Y-64502885D01*
X85424000Y-63960116D01*
X85419525Y-63944877D01*
X85418135Y-63943672D01*
X85410452Y-63942001D01*
X85087000Y-63942001D01*
X85018879Y-63921999D01*
X84972386Y-63868343D01*
X84961000Y-63816001D01*
X84961000Y-62972758D01*
X84981002Y-62904637D01*
X85034658Y-62858144D01*
X85104932Y-62848040D01*
X85169512Y-62877534D01*
X85194775Y-62907486D01*
X85228908Y-62963846D01*
X85233797Y-62968909D01*
X85233798Y-62968910D01*
X85271377Y-63007824D01*
X85350701Y-63089966D01*
X85356593Y-63093821D01*
X85356597Y-63093825D01*
X85414266Y-63131562D01*
X85497410Y-63185970D01*
X85504014Y-63188426D01*
X85655140Y-63244629D01*
X85655142Y-63244629D01*
X85661742Y-63247084D01*
X85668725Y-63248016D01*
X85668726Y-63248016D01*
X85828549Y-63269342D01*
X85828553Y-63269342D01*
X85835530Y-63270273D01*
X85842541Y-63269635D01*
X85842545Y-63269635D01*
X85992710Y-63255968D01*
X86010137Y-63254382D01*
X86016839Y-63252204D01*
X86016841Y-63252204D01*
X86170185Y-63202380D01*
X86170188Y-63202379D01*
X86176884Y-63200203D01*
X86327484Y-63110427D01*
X86332578Y-63105576D01*
X86332582Y-63105573D01*
X86428094Y-63014617D01*
X86454452Y-62989517D01*
X86551477Y-62843482D01*
X86613737Y-62679581D01*
X86638138Y-62505959D01*
X86638445Y-62484000D01*
X86618901Y-62309764D01*
X86615179Y-62299074D01*
X86563557Y-62150835D01*
X86563556Y-62150833D01*
X86561242Y-62144188D01*
X86540124Y-62110392D01*
X86472064Y-62001473D01*
X86472063Y-62001471D01*
X86468332Y-61995501D01*
X86410021Y-61936782D01*
X86376215Y-61874354D01*
X86381527Y-61803556D01*
X86424271Y-61746869D01*
X86490877Y-61722290D01*
X86499428Y-61722000D01*
X87236347Y-61722000D01*
X87304468Y-61742002D01*
G37*
%TD.AperFunction*%
%TD*%
%TA.AperFunction,Conductor*%
%TO.N,GND*%
G36*
X107384121Y-58948002D02*
G01*
X107430614Y-59001658D01*
X107442000Y-59054000D01*
X107442000Y-61785792D01*
X107438817Y-61810982D01*
X107438406Y-61812037D01*
X107437415Y-61819566D01*
X107431243Y-61866446D01*
X107402521Y-61931373D01*
X107343256Y-61970465D01*
X107306321Y-61976000D01*
X105897000Y-61976000D01*
X105828879Y-61955998D01*
X105782386Y-61902342D01*
X105771000Y-61850000D01*
X105771000Y-61691615D01*
X105766525Y-61676376D01*
X105765135Y-61675171D01*
X105757452Y-61673500D01*
X104835000Y-61673500D01*
X104766879Y-61653498D01*
X104720386Y-61599842D01*
X104709000Y-61547500D01*
X104709000Y-61147385D01*
X105217000Y-61147385D01*
X105221475Y-61162624D01*
X105222865Y-61163829D01*
X105230548Y-61165500D01*
X105752884Y-61165500D01*
X105768123Y-61161025D01*
X105769328Y-61159635D01*
X105770999Y-61151952D01*
X105770999Y-60768017D01*
X105770805Y-60763080D01*
X105768570Y-60734664D01*
X105766270Y-60722069D01*
X105723893Y-60576210D01*
X105717648Y-60561779D01*
X105641089Y-60432322D01*
X105631449Y-60419896D01*
X105525104Y-60313551D01*
X105512678Y-60303911D01*
X105383221Y-60227352D01*
X105368790Y-60221107D01*
X105234395Y-60182061D01*
X105220294Y-60182101D01*
X105217000Y-60189370D01*
X105217000Y-61147385D01*
X104709000Y-61147385D01*
X104709000Y-60195122D01*
X104705027Y-60181591D01*
X104697129Y-60180456D01*
X104557210Y-60221107D01*
X104542779Y-60227352D01*
X104413322Y-60303911D01*
X104400896Y-60313551D01*
X104355095Y-60359352D01*
X104292783Y-60393378D01*
X104221968Y-60388313D01*
X104165132Y-60345766D01*
X104140321Y-60279246D01*
X104140000Y-60270257D01*
X104140000Y-59054000D01*
X104160002Y-58985879D01*
X104213658Y-58939386D01*
X104266000Y-58928000D01*
X107316000Y-58928000D01*
X107384121Y-58948002D01*
G37*
%TD.AperFunction*%
%TD*%
M02*
