%TF.GenerationSoftware,KiCad,Pcbnew,(6.0.5)*%
%TF.CreationDate,2022-08-05T12:45:28-07:00*%
%TF.ProjectId,RFIDice_V0_revised,52464944-6963-4655-9f56-305f72657669,rev?*%
%TF.SameCoordinates,Original*%
%TF.FileFunction,Paste,Top*%
%TF.FilePolarity,Positive*%
%FSLAX46Y46*%
G04 Gerber Fmt 4.6, Leading zero omitted, Abs format (unit mm)*
G04 Created by KiCad (PCBNEW (6.0.5)) date 2022-08-05 12:45:28*
%MOMM*%
%LPD*%
G01*
G04 APERTURE LIST*
G04 Aperture macros list*
%AMRoundRect*
0 Rectangle with rounded corners*
0 $1 Rounding radius*
0 $2 $3 $4 $5 $6 $7 $8 $9 X,Y pos of 4 corners*
0 Add a 4 corners polygon primitive as box body*
4,1,4,$2,$3,$4,$5,$6,$7,$8,$9,$2,$3,0*
0 Add four circle primitives for the rounded corners*
1,1,$1+$1,$2,$3*
1,1,$1+$1,$4,$5*
1,1,$1+$1,$6,$7*
1,1,$1+$1,$8,$9*
0 Add four rect primitives between the rounded corners*
20,1,$1+$1,$2,$3,$4,$5,0*
20,1,$1+$1,$4,$5,$6,$7,0*
20,1,$1+$1,$6,$7,$8,$9,0*
20,1,$1+$1,$8,$9,$2,$3,0*%
G04 Aperture macros list end*
%ADD10R,1.150000X0.575000*%
%ADD11R,1.150000X0.275000*%
%ADD12R,0.900000X0.900000*%
%ADD13RoundRect,0.237500X0.237500X-0.250000X0.237500X0.250000X-0.237500X0.250000X-0.237500X-0.250000X0*%
%ADD14RoundRect,0.500000X-0.500000X-0.500000X0.500000X-0.500000X0.500000X0.500000X-0.500000X0.500000X0*%
%ADD15RoundRect,0.237500X0.300000X0.237500X-0.300000X0.237500X-0.300000X-0.237500X0.300000X-0.237500X0*%
%ADD16RoundRect,0.237500X0.250000X0.237500X-0.250000X0.237500X-0.250000X-0.237500X0.250000X-0.237500X0*%
%ADD17R,0.152400X0.152400*%
%ADD18RoundRect,0.237500X-0.237500X0.300000X-0.237500X-0.300000X0.237500X-0.300000X0.237500X0.300000X0*%
%ADD19RoundRect,0.237500X0.237500X-0.300000X0.237500X0.300000X-0.237500X0.300000X-0.237500X-0.300000X0*%
%ADD20RoundRect,0.150000X-0.150000X0.587500X-0.150000X-0.587500X0.150000X-0.587500X0.150000X0.587500X0*%
%ADD21RoundRect,0.150000X0.150000X-0.587500X0.150000X0.587500X-0.150000X0.587500X-0.150000X-0.587500X0*%
%ADD22RoundRect,0.237500X-0.250000X-0.237500X0.250000X-0.237500X0.250000X0.237500X-0.250000X0.237500X0*%
%ADD23RoundRect,0.237500X-0.237500X0.287500X-0.237500X-0.287500X0.237500X-0.287500X0.237500X0.287500X0*%
%ADD24RoundRect,0.500000X0.500000X-0.500000X0.500000X0.500000X-0.500000X0.500000X-0.500000X-0.500000X0*%
%ADD25RoundRect,0.150000X0.650000X0.150000X-0.650000X0.150000X-0.650000X-0.150000X0.650000X-0.150000X0*%
%ADD26RoundRect,0.237500X-0.300000X-0.237500X0.300000X-0.237500X0.300000X0.237500X-0.300000X0.237500X0*%
%ADD27RoundRect,0.500000X0.500000X0.500000X-0.500000X0.500000X-0.500000X-0.500000X0.500000X-0.500000X0*%
%ADD28RoundRect,0.500000X-0.500000X0.500000X-0.500000X-0.500000X0.500000X-0.500000X0.500000X0.500000X0*%
%ADD29R,1.560000X0.650000*%
%ADD30RoundRect,0.250001X-0.924999X0.499999X-0.924999X-0.499999X0.924999X-0.499999X0.924999X0.499999X0*%
%ADD31RoundRect,0.250000X0.292217X-0.292217X0.292217X0.292217X-0.292217X0.292217X-0.292217X-0.292217X0*%
%ADD32RoundRect,0.050000X0.050000X-0.387500X0.050000X0.387500X-0.050000X0.387500X-0.050000X-0.387500X0*%
%ADD33RoundRect,0.050000X0.387500X-0.050000X0.387500X0.050000X-0.387500X0.050000X-0.387500X-0.050000X0*%
%ADD34R,0.650000X1.560000*%
%ADD35R,2.100000X5.600000*%
G04 APERTURE END LIST*
%TO.C,X1*%
G36*
X79417580Y-79024010D02*
G01*
X79540100Y-79074759D01*
X79645310Y-79155490D01*
X79726041Y-79260700D01*
X79794100Y-79514700D01*
X79770480Y-79663832D01*
X79701932Y-79798365D01*
X79595165Y-79905132D01*
X79311500Y-79997300D01*
X78295500Y-79997300D01*
X78146368Y-79973680D01*
X78011835Y-79905132D01*
X77905068Y-79798365D01*
X77812900Y-79514700D01*
X77830210Y-79383220D01*
X77880959Y-79260700D01*
X77961690Y-79155490D01*
X78066900Y-79074759D01*
X78320900Y-79006700D01*
X79286100Y-79006700D01*
X79417580Y-79024010D01*
G37*
G36*
X83608580Y-87660010D02*
G01*
X83731100Y-87710759D01*
X83836310Y-87791490D01*
X83917041Y-87896700D01*
X83985100Y-88150700D01*
X83961480Y-88299832D01*
X83892932Y-88434365D01*
X83786165Y-88541132D01*
X83502500Y-88633300D01*
X82486500Y-88633300D01*
X82337368Y-88609680D01*
X82202835Y-88541132D01*
X82096068Y-88434365D01*
X82003900Y-88150700D01*
X82021210Y-88019220D01*
X82071959Y-87896700D01*
X82152690Y-87791490D01*
X82257900Y-87710759D01*
X82511900Y-87642700D01*
X83477100Y-87642700D01*
X83608580Y-87660010D01*
G37*
G36*
X83595880Y-79011310D02*
G01*
X83718400Y-79062059D01*
X83823610Y-79142790D01*
X83904341Y-79248000D01*
X83972400Y-79502000D01*
X83948780Y-79651132D01*
X83880232Y-79785665D01*
X83773465Y-79892432D01*
X83489800Y-79984600D01*
X82473800Y-79984600D01*
X82324668Y-79960980D01*
X82190135Y-79892432D01*
X82083368Y-79785665D01*
X81991200Y-79502000D01*
X82008510Y-79370520D01*
X82059259Y-79248000D01*
X82139990Y-79142790D01*
X82245200Y-79062059D01*
X82499200Y-78994000D01*
X83464400Y-78994000D01*
X83595880Y-79011310D01*
G37*
G36*
X79417580Y-87660010D02*
G01*
X79540100Y-87710759D01*
X79645310Y-87791490D01*
X79726041Y-87896700D01*
X79794100Y-88150700D01*
X79770480Y-88299832D01*
X79701932Y-88434365D01*
X79595165Y-88541132D01*
X79311500Y-88633300D01*
X78295500Y-88633300D01*
X78146368Y-88609680D01*
X78011835Y-88541132D01*
X77905068Y-88434365D01*
X77812900Y-88150700D01*
X77830210Y-88019220D01*
X77880959Y-87896700D01*
X77961690Y-87791490D01*
X78066900Y-87710759D01*
X78320900Y-87642700D01*
X79286100Y-87642700D01*
X79417580Y-87660010D01*
G37*
%TD*%
D10*
%TO.C,X1*%
X83555000Y-80620000D03*
X83555000Y-81420000D03*
D11*
X83555000Y-82570000D03*
X83555000Y-83570000D03*
X83555000Y-84070000D03*
X83555000Y-85070000D03*
D10*
X83555000Y-87020000D03*
X83555000Y-86220000D03*
D11*
X83555000Y-85570000D03*
X83555000Y-84570000D03*
X83555000Y-83070000D03*
X83555000Y-82070000D03*
%TD*%
D12*
%TO.C,RN2*%
X128302000Y-73382000D03*
X129642000Y-73382000D03*
X130962000Y-73382000D03*
X132302000Y-73382000D03*
X132302000Y-70382000D03*
X130962000Y-70382000D03*
X129642000Y-70382000D03*
X128302000Y-70382000D03*
%TD*%
%TO.C,RN1*%
X138716000Y-71858000D03*
X140056000Y-71858000D03*
X141376000Y-71858000D03*
X142716000Y-71858000D03*
X142716000Y-68858000D03*
X141376000Y-68858000D03*
X140056000Y-68858000D03*
X138716000Y-68858000D03*
%TD*%
D13*
%TO.C,R7*%
X112522000Y-66698500D03*
X112522000Y-64873500D03*
%TD*%
D14*
%TO.C,SW8*%
X155067000Y-81788000D03*
X161417000Y-81788000D03*
%TD*%
D15*
%TO.C,C9*%
X98652500Y-74676000D03*
X96927500Y-74676000D03*
%TD*%
D16*
%TO.C,R15*%
X99718500Y-77855508D03*
X97893500Y-77855508D03*
%TD*%
D17*
%TO.C,U5*%
X102491800Y-70055994D03*
X102841800Y-70055994D03*
X102491800Y-70406006D03*
X102841800Y-70406006D03*
%TD*%
D18*
%TO.C,C12*%
X105918000Y-91593500D03*
X105918000Y-93318500D03*
%TD*%
D19*
%TO.C,C8*%
X105156000Y-77824500D03*
X105156000Y-76099500D03*
%TD*%
D15*
%TO.C,C21*%
X90270500Y-79502000D03*
X88545500Y-79502000D03*
%TD*%
D18*
%TO.C,C4*%
X105460800Y-69241500D03*
X105460800Y-70966500D03*
%TD*%
D20*
%TO.C,Q1*%
X104963000Y-61419500D03*
X103063000Y-61419500D03*
X104013000Y-63294500D03*
%TD*%
D16*
%TO.C,R14*%
X94384500Y-77978000D03*
X92559500Y-77978000D03*
%TD*%
D15*
%TO.C,C7*%
X96874500Y-80264000D03*
X95149500Y-80264000D03*
%TD*%
D19*
%TO.C,C19*%
X117348000Y-83920500D03*
X117348000Y-82195500D03*
%TD*%
%TO.C,C14*%
X108204000Y-77824500D03*
X108204000Y-76099500D03*
%TD*%
D18*
%TO.C,C18*%
X117348000Y-87275500D03*
X117348000Y-89000500D03*
%TD*%
D21*
%TO.C,U3*%
X88458000Y-75867500D03*
X90358000Y-75867500D03*
X89408000Y-73992500D03*
%TD*%
D16*
%TO.C,R1*%
X82192500Y-69723000D03*
X80367500Y-69723000D03*
%TD*%
%TO.C,R4*%
X97203900Y-82499200D03*
X95378900Y-82499200D03*
%TD*%
D22*
%TO.C,R5*%
X96623500Y-100330000D03*
X98448500Y-100330000D03*
%TD*%
D23*
%TO.C,D1*%
X85344000Y-69483000D03*
X85344000Y-71233000D03*
%TD*%
D24*
%TO.C,SW4*%
X137922000Y-101219000D03*
X137922000Y-94869000D03*
%TD*%
D25*
%TO.C,U7*%
X98342000Y-95250000D03*
X98342000Y-93980000D03*
X98342000Y-92710000D03*
X98342000Y-91440000D03*
X91142000Y-91440000D03*
X91142000Y-92710000D03*
X91142000Y-93980000D03*
X91142000Y-95250000D03*
%TD*%
D14*
%TO.C,SW6*%
X155067000Y-98044000D03*
X161417000Y-98044000D03*
%TD*%
D26*
%TO.C,C15*%
X112929500Y-83947000D03*
X114654500Y-83947000D03*
%TD*%
D16*
%TO.C,R3*%
X97203900Y-84150200D03*
X95378900Y-84150200D03*
%TD*%
D15*
%TO.C,C6*%
X96874500Y-88138000D03*
X95149500Y-88138000D03*
%TD*%
D14*
%TO.C,SW9*%
X155067000Y-73914000D03*
X161417000Y-73914000D03*
%TD*%
D22*
%TO.C,R13*%
X92559500Y-75946000D03*
X94384500Y-75946000D03*
%TD*%
D16*
%TO.C,R8*%
X114704500Y-85725000D03*
X112879500Y-85725000D03*
%TD*%
D22*
%TO.C,R2*%
X80367500Y-72009000D03*
X82192500Y-72009000D03*
%TD*%
D27*
%TO.C,SW5*%
X148717000Y-90170000D03*
X142367000Y-90170000D03*
%TD*%
D28*
%TO.C,SW2*%
X137922000Y-79375000D03*
X137922000Y-85725000D03*
%TD*%
D22*
%TO.C,R6*%
X91797500Y-100330000D03*
X93622500Y-100330000D03*
%TD*%
D29*
%TO.C,U1*%
X85678000Y-66675000D03*
X85678000Y-65725000D03*
X85678000Y-64775000D03*
X82978000Y-64775000D03*
X82978000Y-66675000D03*
%TD*%
D13*
%TO.C,R11*%
X160528000Y-66952500D03*
X160528000Y-65127500D03*
%TD*%
D30*
%TO.C,C20*%
X94742000Y-65050000D03*
X94742000Y-68300000D03*
%TD*%
D15*
%TO.C,C11*%
X96874500Y-86106000D03*
X95149500Y-86106000D03*
%TD*%
D18*
%TO.C,C3*%
X100126800Y-69241500D03*
X100126800Y-70966500D03*
%TD*%
D31*
%TO.C,U6*%
X104264500Y-85473500D03*
X104264500Y-84198500D03*
X105539500Y-84198500D03*
X105539500Y-85473500D03*
D32*
X102302000Y-88273500D03*
X102702000Y-88273500D03*
X103102000Y-88273500D03*
X103502000Y-88273500D03*
X103902000Y-88273500D03*
X104302000Y-88273500D03*
X104702000Y-88273500D03*
X105102000Y-88273500D03*
X105502000Y-88273500D03*
X105902000Y-88273500D03*
X106302000Y-88273500D03*
X106702000Y-88273500D03*
X107102000Y-88273500D03*
X107502000Y-88273500D03*
D33*
X108339500Y-87436000D03*
X108339500Y-87036000D03*
X108339500Y-86636000D03*
X108339500Y-86236000D03*
X108339500Y-85836000D03*
X108339500Y-85436000D03*
X108339500Y-85036000D03*
X108339500Y-84636000D03*
X108339500Y-84236000D03*
X108339500Y-83836000D03*
X108339500Y-83436000D03*
X108339500Y-83036000D03*
X108339500Y-82636000D03*
X108339500Y-82236000D03*
D32*
X107502000Y-81398500D03*
X107102000Y-81398500D03*
X106702000Y-81398500D03*
X106302000Y-81398500D03*
X105902000Y-81398500D03*
X105502000Y-81398500D03*
X105102000Y-81398500D03*
X104702000Y-81398500D03*
X104302000Y-81398500D03*
X103902000Y-81398500D03*
X103502000Y-81398500D03*
X103102000Y-81398500D03*
X102702000Y-81398500D03*
X102302000Y-81398500D03*
D33*
X101464500Y-82236000D03*
X101464500Y-82636000D03*
X101464500Y-83036000D03*
X101464500Y-83436000D03*
X101464500Y-83836000D03*
X101464500Y-84236000D03*
X101464500Y-84636000D03*
X101464500Y-85036000D03*
X101464500Y-85436000D03*
X101464500Y-85836000D03*
X101464500Y-86236000D03*
X101464500Y-86636000D03*
X101464500Y-87036000D03*
X101464500Y-87436000D03*
%TD*%
D14*
%TO.C,SW7*%
X155067000Y-89916000D03*
X161417000Y-89916000D03*
%TD*%
%TO.C,SW3*%
X127127000Y-90424000D03*
X133477000Y-90424000D03*
%TD*%
D34*
%TO.C,U4*%
X109669500Y-61976000D03*
X110619500Y-61976000D03*
X111569500Y-61976000D03*
X111569500Y-59276000D03*
X109669500Y-59276000D03*
%TD*%
D15*
%TO.C,C16*%
X87222500Y-96012000D03*
X85497500Y-96012000D03*
%TD*%
D13*
%TO.C,R10*%
X79502000Y-93241500D03*
X79502000Y-91416500D03*
%TD*%
%TO.C,R12*%
X163576000Y-66952500D03*
X163576000Y-65127500D03*
%TD*%
D18*
%TO.C,C1*%
X80264000Y-64415500D03*
X80264000Y-66140500D03*
%TD*%
D19*
%TO.C,C10*%
X102108000Y-77824500D03*
X102108000Y-76099500D03*
%TD*%
D18*
%TO.C,C2*%
X89408000Y-64288500D03*
X89408000Y-66013500D03*
%TD*%
D19*
%TO.C,C17*%
X109982000Y-66648500D03*
X109982000Y-64923500D03*
%TD*%
D13*
%TO.C,R9*%
X83312000Y-93241500D03*
X83312000Y-91416500D03*
%TD*%
D35*
%TO.C,Y1*%
X121412000Y-80844000D03*
X121412000Y-89844000D03*
%TD*%
D18*
%TO.C,C13*%
X102108000Y-91593500D03*
X102108000Y-93318500D03*
%TD*%
D26*
%TO.C,C5*%
X111913500Y-82296000D03*
X113638500Y-82296000D03*
%TD*%
M02*
